<?xml version="1.0" encoding="utf-8"?>
<!-- Generator: Adobe Illustrator 22.0.1, SVG Export Plug-In . SVG Version: 6.00 Build 0)  -->
<svg version="1.1" id="Layer_1" xmlns="http://www.w3.org/2000/svg" xmlns:xlink="http://www.w3.org/1999/xlink" x="0px" y="0px"
	 viewBox="0 0 372.2 372.2" style="enable-background:new 0 0 372.2 372.2;" xml:space="preserve">
<style type="text/css">
	.st0{fill:#D8723B;}
	.st1{fill:#633A2F;}
	.st2{fill:#FFFFFF;}
	.st3{fill:#545658;}
	.st4{fill:#F37D7F;}
	.st5{fill:#3F2926;}
	.st6{fill:#FDFADD;}
	.st7{fill:#FCF6B6;}
	.st8{fill:#FDF5A3;}
	.st9{fill:#F596A9;}
	.st10{fill:#FBEA74;}
	.st11{fill:#C86836;}
	.st12{fill:#72402E;}
	.st13{fill:#C35F34;}
	.st14{fill:#5C3025;}
	.st15{fill:#535354;}
	.st16{fill:#D86E66;}
	.st17{fill:#494949;}
	.st18{fill:#A04D27;}
</style>
<g>
	<g>
		<g>
			<g>
				<path class="st0" d="M99.4,295.1c0-2.2,1.8-3.6,3.7-4.9c2.5-1.7,5.2-3.7,5.4-7.6c0.3-5.1,0.2-8.2,0-9.9
					c-0.7-0.3-1.4-0.4-1.9-0.6c-1.5-0.5-2.9-1-4.3-1.7c-7.1-3.8-11.1-10.4-8.7-14.8c1.2-2.4,4.1-3.6,7.6-3.6
					c2.9-0.1,6.3,0.8,9.6,2.6c3.9,2.1,6.8,5,8.3,7.9l0,0c0,0,6.1,8.4,26.2-4.5l0,0c3.5-3.5,8.9-6.4,15.3-7.9
					c12.5-2.8,24,1.1,25.7,8.7c1,4.5-1.6,9.3-6.5,13.1c1.5-0.3,3-0.6,4.5-1c5.2-1.3,10.6-1.2,15.2-0.1c1.1,0.3,2.1,0.6,3.1,1
					c0.9,0.4,1.8,0.8,2.5,1.2c0.3,0.1,0.5,0.3,0.8,0.4c3.4,2.1,5.6,5.1,6.4,8.8c3,13.8-3.6,24-18.9,29.3c-8.9,3.1-20.5,4-28.8,4.1
					c-3.9,0.1-7.6,0-11.1-0.2c-5.7-0.3-10.7-0.8-14-1.3c-1.3-0.2-2.7-0.5-4.4-0.9c-0.7-0.2-1.3-0.3-2.1-0.6
					c-0.7-0.2-1.4-0.4-2.1-0.6c-9.6-2.9-22.2-8-28.2-12.1C101.1,298.6,99.4,297.2,99.4,295.1 M92.5,202.3c0-0.1,0.1-0.2,0.1-0.2
					c0.5-0.7,1.5-1.3,2.7-1.2c1.6,0.1,2.9,1.2,2.8,2.5c0,0.1-0.1,0.3-0.1,0.4c0,0.1-0.1,0.3-0.2,0.3c-0.9,2.1-1.4,4.9-1.6,7.8
					c-0.1,3,0.1,5.8,0.7,8c0,0.1,0.1,0.3,0.1,0.4c0,0.1,0.1,0.3,0,0.4c-0.1,1.3-1.4,2.3-3.1,2.2c-0.2,0-0.4,0-0.8-0.1
					c-0.9-0.3-1.5-0.8-1.9-1.4c-0.1,0,0-0.1-0.1-0.2c-0.1-0.2-0.1-0.4-0.2-0.6c-0.9-2.3-1.2-5.5-1.1-9
					C90.4,207.9,91.3,204.5,92.5,202.3 M201.8,204.9c0.6-0.9,1.7-1.4,3.1-1.4c1.8,0.1,3.2,1.4,3.2,2.9c0,0.2-0.1,0.3-0.1,0.5
					c-0.1,0.2-0.1,0.3-0.2,0.5c-1,2.4-1.6,5.5-1.9,8.9c-0.2,3.4,0.1,6.6,0.8,9.1l0,0.1c0,0.1,0,0.1,0.1,0.3c0,0.1,0,0.4,0.1,0.5
					c-0.1,1.3-1.4,2.4-3.1,2.5c-0.1,0-0.2,0-0.4,0c-1.3-0.1-2.4-0.8-3-1.7c0-0.1,0-0.1-0.1-0.3c-1.1-2.7-1.8-6.6-1.5-11
					c0.3-4.3,1.2-8.3,2.7-10.8C201.7,205,201.8,204.9,201.8,204.9 M114.7,343.3l2.8-0.8l2.8-0.8l16.5-5.2l0.7,10.2l29.1-12.7
					l20.8,5.3l16.8-22.1l8.8,0.7l6.5,0.6l7-10.7l11.7,3.5l6.5-14.3l14.8,4.6l4.8-12.3l14.3,4.3l1.4-13.9l13.3-2.1l-3.8-13l11.6-4.1
					l0.3-9.6c-0.9,0-2.7-0.1-4.9-0.1c-5.4-0.3-13-1.2-15.2-3.9c-1.1-1.3-1.2-3-0.9-4.5c0.1-0.8,0.4-1.5,0.7-2.2
					c0.4-0.8,0.8-1.5,1.1-2.2c1-1.7,2-3,2-3s-0.2,1.2-0.3,2.7c0,0.7,0,1.4,0.1,2.1c0.1,0.7,0.2,1.4,0.4,2.1c0.2,0.5,0.4,1.1,0.8,1.5
					c2,2.5,14.7,2.7,16.4,2.7l0,0l2.2-0.1c3.1-0.1,5.7-0.5,8.1-1.1c2.7-0.8,5.1-1.8,6.9-3.3c0.2-0.1,0.4-0.2,0.5-0.4
					c0.6-0.5,1.2-1.1,1.6-1.6c0-0.1,0.2-0.2,0.3-0.3c0.3-0.3,0.5-0.6,0.8-1c0.2-0.3,0.3-0.6,0.6-0.9c1.4-2.4,1.9-4.8,2-6.4
					c-2.1,0.1-3.9,0.1-5.8-0.1c-13.4-0.6-21.1-4.8-25.3-8.9c-4-3.9-5-7.6-5.1-7.9l-0.2-0.7l9.3-27.6l0.7-2.1
					c-14.1-11.7-38.2-11.7-38.4-11.8l-4.3,0l7.7-12.3c-20.6-14.8-47-11-47.3-10.9l-4.5,0.7l5.2-10.6c-14.9-4.1-28-1.5-37.3,2.1
					l1.2,5.8l1.2,5.6l0,0.1c0,0.4,0.1,3.9-3.3,7.2c-3.9,3.9-10.7,5.8-20.3,5.3l0,0c-23.2-1.1-23.5-10.2-23.4-11.2l0-0.1l0-0.1
					l2.6-15.5c-0.8-0.1-1.8-0.2-2.7-0.3c-1.4-0.1-3-0.1-4.5,0l2.5,15l-4.3-2.2c-0.2-0.1-12.6-5.8-26.4-4.3c-2.8,0.3-5.7,0.9-8.4,1.9
					l3.5,15.7l-4.2-1.6c-2.2-0.8-6.8-1.6-12.8-0.9c-2.9,0.3-6.3,1-9.7,2.2l3,13.9l-9.8,0.5c-0.1,3.6-0.2,11.4-0.1,21l0.4,0.2
					c0,0.1-0.2,0.3-0.4,0.7c0.2,14.6,1.1,33.2,3.9,47.6l12.1,2.4l-2.2,3c-0.1,0.3-4.4,6.3-2.6,15.1l10.9,10.2l5.4,22.9l10.1,3.8
					l-2.8,27.3l15.6-4l-4.9,17.7L114.7,343.3z"/>
				<path class="st0" d="M48.3,207.9c1,3.2,3.8,8.3,11.1,8.4c-0.3-4.2-0.4-8.3-0.4-12.2C56.4,206,52.9,207.7,48.3,207.9"/>
				<path class="st1" d="M48.3,207.9c1,3.2,3.8,8.3,11.1,8.4c-0.3-4.2-0.4-8.3-0.4-12.2C56.4,206,52.9,207.7,48.3,207.9
					 M329.2,227.6c0,0.2,0.4,4.5-1.6,9.3l0,0c-0.1,0.2-0.2,0.3-0.2,0.6l0,0c-0.5,1.3-1.3,2.6-2.2,3.8c-0.1,0-0.1,0-0.2,0
					c-0.2,0.2-0.4,0.6-0.7,0.8c-4,4.6-10.2,7.3-18.3,8l-0.2,4.2l-0.3,9.3l-10.5,3.7l4,13.8l-14.9,2.4l-1.7,16l-15.6-4.7l-4.9,12.4
					l-15-4.7l-6.5,14.3l-12.2-3.7l-6.5,10l-15.5-1.3l-17.1,22.5l-22.2-5.7l-4,1.8l-29.9,13l-0.6-10.8l-15.2,4.9
					c-1.5,0.2-2.8,0.8-4.1,1.4c-0.7,0.2-1.5,0.3-2.1,0.7l0,0l-8.8,2.8l5.1-18.1l-14.2,3.7l3.1-30.4l-9.1-3.4l-5.6-24l-10.9-10.2
					l-0.2-0.7c-1.7-7.3,0-13.1,1.4-16.5l-8.4-1.6l-0.3-1.5c-1.8-8.7-3-18.9-3.6-28.9c-0.4,0-0.9,0-1.3,0
					c-13-0.6-14.8-14.1-14.7-14.3l-0.3-2.5l2.5,0.1c0.1,0,0.2,0,0.2,0c6.6,0.3,10.7-2.9,12.7-5.2c-0.2-13.1,0.2-22.8,0.3-23.6
					l0.1-2.1l8.5-0.5L65,159.9l1.9-0.8c10.7-4.1,19.2-3.7,23.8-2.9l-2.7-11.5l1.8-0.8c14.4-6.1,29.5-2.3,36.6,0.2l-1.9-11.2l2.4-0.4
					c3.9-0.6,7.6-0.5,11.1-0.1l-0.4,2.3l-0.4,2.3c-0.8-0.1-1.8-0.2-2.7-0.3c-1.4-0.1-3-0.1-4.5,0l2.5,15l-4-1.8
					c-0.2-0.1-12.6-5.8-26.4-4.3c-2.8,0.3-5.7,0.9-8.4,1.9l3.5,15.7l-4.2-1.6c-2.2-0.8-6.8-1.6-12.8-0.9c-2.9,0.3-6.3,1-9.7,2.2
					l3,13.9l-9.8,0.5c-0.1,3.6-0.2,11.4-0.1,21l0.4,0.2c0,0.1-0.2,0.3-0.4,0.7c0.2,14.6,1.1,33.2,3.9,47.6l12.1,2.4l-2.2,3
					c-0.1,0.3-4.4,6.3-2.6,15.1l10.9,10.2l5.4,22.9l10.1,3.8l-2.8,27.3l15.6-4l-4.9,17.7l5.5-1.7l2.8-0.9l2.8-0.8l16.5-5.2l0.7,10.2
					l29.1-12.7l20.8,5.3l16.8-22.1l8.8,0.7l6.5,0.6l7-10.7l11.7,3.5l6.5-14.3l14.8,4.6l4.8-12.3l14.3,4.3l1.4-13.9l13.2-2.2l-3.8-13
					l11.6-4.1l0.3-9.6c-0.9,0-2.7-0.1-4.9-0.1c-5.4-0.3-13-1.2-15.2-3.9c-1.1-1.3-1.2-3-0.9-4.5c0.2-0.7,0.4-1.5,0.7-2.2
					s0.8-1.5,1.1-2.2c1-1.7,2-3,2-3s-0.2,1.2-0.3,2.7c0,0.7,0,1.4,0.1,2.1s0.2,1.4,0.4,2.1c0.2,0.5,0.4,1.1,0.8,1.5
					c2,2.5,14.7,2.7,16.4,2.7l0,0l2.2-0.1c3.1-0.1,5.7-0.5,8.1-1.1c2.7-0.8,5.1-1.8,6.9-3.3c0.2-0.1,0.4-0.2,0.5-0.4
					c0.6-0.5,1.2-1.1,1.6-1.6c0-0.1,0.1-0.3,0.3-0.3c0.3-0.3,0.5-0.6,0.8-1c0.2-0.3,0.3-0.6,0.6-0.9c1.4-2.4,1.9-4.8,2-6.4
					c-2.1,0.1-3.9,0.1-5.8-0.1c-13.4-0.6-21.1-4.8-25.3-8.9c-4-3.9-5-7.6-5.1-7.9l-0.2-0.7l9.3-27.6l0.7-2.1
					c-14.1-11.7-38.2-11.7-38.4-11.8l-4.3,0l7.7-12.3c-20.6-14.8-47-11-47.3-10.9l-4.4,0.7l5.2-10.6c-14.9-4.1-28-1.5-37.3,2.1
					l-0.4-2.1l-0.1-0.3l-0.5-2.4c10.5-3.9,25.3-6.6,42.4-1l2.6,0.9l-3.8,7.7c9.2-0.6,30.7-0.2,48.3,13.6l1.7,1.3l-5.5,8.9
					c8.3,0.6,26.8,3,38.6,13.8l1.2,1l-10.6,31.3c1.1,2.8,7,14.2,33.6,12.6l2.2-0.1L329.2,227.6z"/>
				<path class="st1" d="M133.9,280c0.5-0.5,0.9-1.2,1.2-2c-1.5-0.2-3-0.4-4.5-0.7c-0.5-0.1-0.9-0.2-1.5-0.3
					c-3.6-0.5-7.4-1.1-11-1.9c-0.1,1.8,0.8,3.4,2.2,3.7l9.3,1.5l2.4,0.4C132.6,280.9,133.3,280.6,133.9,280 M182,309.7
					c3-0.5,5.9-1.1,8.6-2c-3.1-6.1-16.4-12.6-33-14c-1.2-0.1-2.5-0.1-3.7-0.1c0,0-0.1,0-0.1,0c-1.9-0.1-3.8-0.1-5.5,0
					c-2.2,0.1-4.5,0.2-6.7,0.5c-10.9,1.3-19.8,4.5-23.4,8.8c5,2,10.2,3.9,14.7,5.2c0.7,0.2,1.4,0.4,2.1,0.6c0.7,0.2,1.4,0.3,2.1,0.5
					c1.1,0.3,2.2,0.4,3.1,0.6C148.4,311,166.9,312.1,182,309.7 M188.8,276.7c0.5-0.6,0.8-1.4,0.8-2.2c0-0.2,0-0.4-0.1-0.5
					c-0.1,0-0.4,0-0.5,0.1l-2.3,0.3c-0.5,0.1-1,0.2-1.6,0.4c-0.4,0.1-0.7,0.2-1.1,0.3c-8,1.9-15.9,3.1-23.9,3.6
					c0.2,0.8,0.7,1.6,1.5,2.1c0.9,0.6,2,0.9,3.1,0.7l12.5-1.9l8.3-1.2l0.4,0l0,0c0.8-0.1,1.5-0.4,2.1-0.9
					C188.2,277.2,188.5,277,188.8,276.7 M193.3,306.8c12.4-4.8,17.2-12.7,14.7-24c-0.5-2.5-2.1-4.6-4.6-6.1c-1.2-0.8-2.6-1.3-4-1.8
					c-1.2-0.3-2.3-0.6-3.6-0.8c-1.2-0.2-2.3-0.3-3.5-0.3c0,0.6,0,1.2,0,1.7c-0.2,0.9-0.6,1.9-1.2,2.8c0,0.1-0.1,0.2-0.1,0.3
					c-1.1,1.4-2.8,2.3-4.7,2.6l-3.4,0.5l-8.6,1.2l-8.6,1.2l-0.6,0.1c-0.5,0.1-1,0.1-1.4,0.1c-1.3-0.1-2.7-0.5-3.8-1.2
					c-1.6-1.1-2.6-2.6-2.8-4.4c-4.3,0.2-8.6,0.2-13,0.1c-0.7,0-1.4,0-2.1-0.1c-1.3,0-2.5-0.2-3.8-0.3c-0.4,1.5-1.1,2.8-2.2,3.8
					c-1.1,1-2.5,1.6-3.8,1.5c-0.2,0-0.4,0-0.5-0.1l-11.7-1.8c-3.1-0.5-5-3.7-4.6-7.2c-0.8-0.2-1.6-0.4-2.4-0.7
					c0.1,2,0.1,4.9-0.1,8.8c-0.4,5.9-4.4,8.9-7.1,10.8c-0.7,0.5-1.6,1.2-1.9,1.6c0.1,0.2,0.5,0.7,1.4,1.2c2.4,1.7,6.1,3.6,10.3,5.4
					c4.8-6.6,18.3-10.9,34.8-11.1c0.2,0,0.4,0,0.7,0c1,0,2.1,0.1,3.2,0.1c0.4,0,0.9,0,1.4,0.1c1.6,0.1,3.1,0.2,4.6,0.3
					C176,292.8,189.9,299.3,193.3,306.8 M145.2,257.8c3.5-3.5,8.9-6.4,15.3-7.9c12.5-2.8,24,1.1,25.7,8.7c1,4.5-1.6,9.3-6.5,13.1
					c1.5-0.3,3-0.6,4.5-1c5.2-1.3,10.6-1.2,15.1-0.2c1.1,0.3,2.1,0.6,3.1,1c0.9,0.4,1.8,0.8,2.5,1.2c0.3,0.1,0.5,0.3,0.8,0.4
					c3.4,2.1,5.6,5.1,6.4,8.8c3,13.8-3.6,24-18.9,29.3c-8.9,3.1-20.5,4-28.7,4.1c-3.9,0.1-7.6,0.1-11.1-0.2
					c-5.7-0.3-10.7-0.8-14-1.3c-1.3-0.2-2.7-0.5-4.4-0.9c-0.7-0.2-1.3-0.3-2.1-0.6c-0.7-0.2-1.4-0.4-2.1-0.6
					c-9.6-2.9-22.2-8-28.2-12.1c-1.6-1.1-3.3-2.5-3.3-4.7c0-2.2,1.8-3.6,3.7-4.9c2.5-1.7,5.2-3.7,5.4-7.6c0.3-5.1,0.2-8.2,0-9.9
					c-0.7-0.3-1.4-0.4-1.9-0.6c-1.4-0.4-2.9-1-4.3-1.7c-7.1-3.8-11.1-10.4-8.7-14.8c1.2-2.4,4.1-3.6,7.6-3.6c0.2,0,0.4,0,0.8,0
					c2.8,0.1,5.9,1,8.9,2.6c3.9,2.1,6.8,5,8.3,7.9C118.9,262.2,124.9,270.6,145.2,257.8"/>
				<path class="st1" d="M208,206.8c-0.1,0.2-0.1,0.3-0.2,0.5c-1,2.4-1.6,5.5-1.9,8.9c-0.2,3.4,0.1,6.6,0.8,9.1l0,0.1
					c0,0.1,0,0.1,0.1,0.3s0,0.4,0.1,0.5c-0.1,1.3-1.4,2.4-3.1,2.5c-0.1,0-0.2,0-0.4,0c-1.3-0.1-2.4-0.8-2.9-1.8
					c-0.1,0,0-0.1-0.1-0.3c-1.1-2.7-1.8-6.6-1.5-11c0.3-4.3,1.3-8.2,2.6-10.7c0-0.1,0.1-0.2,0.1-0.3c0.6-0.9,1.7-1.4,3.1-1.4
					c1.8,0.1,3.2,1.4,3.2,2.9C208.1,206.5,208.1,206.6,208,206.8"/>
				<path class="st2" d="M189.5,274.5c0,0.8-0.3,1.6-0.8,2.2c-0.2,0.2-0.5,0.5-0.8,0.7c-0.6,0.5-1.3,0.7-2.1,0.9l0,0l-0.4,0
					l-8.3,1.2l-12.5,1.9c-1.1,0.2-2.2-0.1-3.1-0.7c-0.7-0.5-1.3-1.3-1.5-2.1c8.1-0.6,15.9-1.8,23.9-3.6c0.4-0.1,0.8-0.1,1.1-0.3
					c0.5-0.2,1-0.2,1.6-0.4l2.3-0.3c0.1,0,0.4,0,0.5-0.1C189.5,274.1,189.5,274.4,189.5,274.5"/>
				<path class="st2" d="M135.1,278.1c-0.2,0.8-0.6,1.5-1.2,2c-0.7,0.5-1.3,0.7-2,0.7l-2.4-0.4l-9.3-1.5c-1.4-0.2-2.3-1.9-2.2-3.7
					c3.7,0.8,7.4,1.4,11,1.9c0.5,0.1,0.9,0.2,1.5,0.3C132,277.6,133.6,277.9,135.1,278.1"/>
				<path class="st1" d="M98.1,203.8c0,0.1-0.1,0.3-0.2,0.3c-0.9,2.1-1.4,4.9-1.6,7.8s0.1,5.8,0.7,8c0,0.1,0.1,0.3,0.1,0.4
					s0.1,0.3,0,0.4c-0.1,1.3-1.4,2.3-3.1,2.2c-0.2,0-0.4,0-0.8-0.1c-0.9-0.3-1.5-0.8-1.9-1.4c-0.1,0,0-0.1-0.1-0.2
					c-0.1-0.2-0.1-0.4-0.2-0.6c-0.9-2.3-1.2-5.5-1.1-9c0.2-3.8,1.1-7.2,2.4-9.5c0-0.1,0-0.1,0.1-0.2c0.4-0.8,1.5-1.3,2.7-1.2
					c1.6,0.1,2.9,1.2,2.8,2.5C98.2,203.5,98.1,203.6,98.1,203.8"/>
				<path class="st3" d="M203.6,276.7c-1.2-0.8-2.6-1.3-4-1.8c-1.2-0.3-2.3-0.6-3.6-0.8c-1.2-0.2-2.3-0.3-3.5-0.3c0,0.6,0,1.2,0,1.7
					c-0.2,0.9-0.6,1.9-1.2,2.8c0,0.1-0.1,0.2-0.1,0.3c-1.1,1.4-2.8,2.3-4.7,2.6l-3.4,0.5l-8.6,1.2l-8.6,1.2l-0.6,0.1
					c-0.5,0.1-1,0.1-1.4,0.1c-1.3-0.1-2.7-0.5-3.8-1.2c-1.6-1.1-2.6-2.6-2.8-4.4c-4.3,0.2-8.6,0.2-13,0.1c-0.7,0-1.4,0-2.1-0.1
					c-1.3,0-2.5-0.2-3.8-0.3c-0.4,1.5-1.1,2.8-2.2,3.8c-1.1,1-2.5,1.6-3.8,1.5c-0.2,0-0.4,0-0.5-0.1l-11.7-1.8
					c-3.1-0.5-5-3.7-4.6-7.2c-0.8-0.2-1.6-0.4-2.4-0.7c0.1,2,0.1,4.9-0.1,8.8c-0.4,5.9-4.4,8.9-7.1,10.8c-0.7,0.5-1.6,1.2-1.9,1.6
					c0.1,0.2,0.5,0.7,1.5,1.2c2.4,1.7,6.1,3.6,10.3,5.4c4.8-6.6,18.3-10.9,34.8-11.1c0.2,0,0.4,0,0.7,0c1,0,2.1,0.1,3.2,0.1
					c0.4,0,0.9,0,1.4,0.1c1.6,0.1,3.1,0.2,4.6,0.3c16,1.7,29.9,8.2,33.4,15.7c12.4-4.8,17.2-12.7,14.7-24
					C207.6,280.4,206.1,278.2,203.6,276.7"/>
				<path class="st4" d="M157.5,293.8c-1.2-0.1-2.5-0.1-3.7-0.1c0,0-0.1,0-0.1,0c-1.9-0.1-3.8-0.1-5.5,0c-2.2,0.1-4.5,0.2-6.7,0.5
					c-10.9,1.3-19.9,4.5-23.4,8.8c5,2,10.2,3.9,14.7,5.2c0.7,0.2,1.4,0.4,2.1,0.6c0.7,0.2,1.4,0.3,2.1,0.5c1.1,0.3,2.2,0.4,3.1,0.6
					c8.3,1.2,26.9,2.4,41.9-0.1c3-0.5,5.9-1.1,8.6-2C187.5,301.7,174,295.1,157.5,293.8"/>
				<path class="st5" d="M178.6,258.3c-1.7-1.7-6-0.4-9.8,3.1c-3.8,3.5-5.6,7.8-4,9.5c1.7,1.7,6,0.4,9.8-3.1
					C178.4,264.3,180.3,260,178.6,258.3"/>
				<path class="st5" d="M99.2,258.1c-1.2,0.8-0.6,3.5,1.2,5.8c0.6,0.8,1.2,1.5,1.9,2c1.2,0.9,2.3,1.3,3.1,1c0-0.1,0.1,0,0.2-0.1
					c1.2-0.8,0.6-3.5-1.2-5.8C102.6,258.6,100.3,257.3,99.2,258.1"/>
			</g>
			<polygon class="st6" points="157.1,30.1 165.1,25.2 157,21.7 			"/>
			<polygon class="st6" points="154,21.7 145.9,25.5 154.3,30.3 			"/>
			<g>
				<path class="st6" d="M162.8,21.1l1.8,0.8l-7.8-12.5c0,3,0.1,6.1,0.2,9.1C158.9,19.3,160.9,20.2,162.8,21.1"/>
			</g>
			<polygon class="st6" points="154.1,18.9 154.1,18.9 154.6,18.9 			"/>
			<g>
				<path class="st6" d="M181.6,151.5l-1.2-5.6l-1.2-5.8l-0.4-2.1l-0.1-0.3l-0.5-2.4l-15.6-74.3c-0.6-3.1-3.2-5.1-6.3-5.1
					c-3.1,0.1-5.6,2.2-6.1,5.3l-12,71l-0.4,2.3l-0.4,2.3l-2.6,15.5l0,0.1l0,0.1c0,1,0.2,10.1,23.4,11.2l0,0
					c9.5,0.4,16.4-1.4,20.3-5.3c3.3-3.3,3.3-6.8,3.3-7.2L181.6,151.5z"/>
				<path class="st6" d="M153.9,9.4l-7.5,12.8c2.5-1.2,5.1-2.4,7.7-3.6C154,15.5,154,12.4,153.9,9.4"/>
				<path class="st6" d="M157.3,44.2l6-8.8c-2,1.3-4.1,2.5-6.2,3.8L157.3,44.2z"/>
				<path class="st6" d="M154.4,44.2c0-1.6,0-3.4-0.1-5c-2.1-1.2-4.2-2.4-6.3-3.5L154.4,44.2z"/>
				<path class="st6" d="M159.4,66l-0.8-4c-0.3-1.3-1.3-1.8-2.2-1.7l-0.1,0c-0.9,0.1-1.8,0.6-2.1,1.8l-0.1,0.8
					c1,0.7,1.9,1.3,2.9,1.9C157.8,65.2,158.6,65.7,159.4,66"/>
				<path class="st7" d="M156.5,60.2c0.8,0,1.7,0.5,2,1.6C158.2,60.8,157.4,60.3,156.5,60.2"/>
				<path class="st8" d="M156.5,60.2L156.5,60.2l-0.1,0l-0.1,0l0.8,4.5c0.8,0.4,1.6,0.9,2.4,1.2l-0.8-4l0-0.1
					C158.2,60.8,157.4,60.3,156.5,60.2L156.5,60.2"/>
				<path class="st8" d="M157.9,69.9l3.1,17.9c1.1,0.4,2.2,0.8,3.3,1.2l-3.8-17.9C159.5,70.7,158.7,70.3,157.9,69.9"/>
				<path class="st8" d="M161.7,92.6l3,17.6c1.3,0.3,2.7,0.6,4.1,0.8l-3.7-17.5C164.1,93.3,162.9,93,161.7,92.6"/>
				<path class="st7" d="M168.5,131.8c1.3,0.2,2.7,0.3,4.1,0.4C171.1,132.1,169.8,131.9,168.5,131.8 M173.3,132.2L173.3,132.2
					L173.3,132.2 M172.6,132.2L172.6,132.2L172.6,132.2"/>
				<path class="st8" d="M165.5,114.5l2.9,17.2c1.3,0.2,2.7,0.3,4.1,0.4l0,0l0,0c0.2,0,0.4,0,0.7,0c0,0,0,0,0.1,0l-3.6-16.8
					C168.3,115.1,166.9,114.9,165.5,114.5"/>
				<path class="st8" d="M169.2,136l0.6,3.2l0.4,2.5l0.4,2.5l1.4,8.6c1.7,0,3.4,0,5.3-0.1c0.1-0.4,0.1-0.6,0.1-0.8l-2.2-10.2
					l-0.5-2.4l-0.5-2.4l-0.1-0.6c-0.6,0-1.3,0-1.8,0C171.2,136.2,170.2,136.2,169.2,136"/>
				<path class="st8" d="M174.2,157c-0.4,0-0.9,0-1.4,0l0.1,0.8C173.4,157.6,173.8,157.3,174.2,157"/>
				<path class="st9" d="M154,21.7l0.1,8.5l-8.3-4.6L154,21.7z M153.9,9.4c0,3,0.1,6.1,0.2,9.2c-2.5,1.2-5.1,2.4-7.7,3.6L153.9,9.4z
					 M154.1,18.9l0.6,0L154.1,18.9L154.1,18.9z M157.1,30.1l-0.1-8.5l8.1,3.6L157.1,30.1z M156.8,9.4l7.8,12.5l-1.8-0.8
					c-1.9-0.9-3.9-1.6-5.9-2.5C156.9,15.5,156.8,12.4,156.8,9.4 M142.2,26.8l3,1.7c3.1,1.8,6.4,3.6,9.7,5.4c0.3,0.1,0.6,0.2,0.8,0.2
					l0.1,0c0.4,0,0.6-0.1,0.9-0.3c0.9-0.5,1.8-1.1,2.6-1.6l9.6-6c0.1,0,0.5-0.3,0.7-0.8c0.2-0.5,0-0.9-0.2-1.4
					c-4.3-6.9-8.6-13.7-12.8-20.5c-0.2-0.3-0.5-0.7-1-0.8l-0.1,0l-0.4,0l-0.2,0c-0.6,0.2-0.8,0.7-0.9,0.8c-3.2,5.4-6.5,11-9.6,16.4
					l-2.7,4.5c-0.2,0.4-0.4,0.8-0.2,1.2C141.5,26.1,141.7,26.5,142.2,26.8"/>
				<path class="st9" d="M154.3,39.2c0,1.6,0,3.4,0.1,5l-6.3-8.5C150.1,36.8,152.2,38,154.3,39.2 M157.3,44.2l-0.1-5
					c2.1-1.2,4.1-2.5,6.2-3.8L157.3,44.2z M167.5,29.5l-4.3,2.6c-2.5,1.5-5,3.1-7.5,4.6c-3-1.7-6.1-3.5-9-5.1l-1.9-1.1
					c-0.3-0.2-0.7-0.4-1-0.6c-0.4-0.2-0.9-0.3-1.3-0.1c-0.5,0.2-0.7,0.5-0.8,1c-0.1,0.6,0.2,1.1,0.3,1.3c4.3,5.8,8.6,11.6,12.8,17.2
					c0.1,0.2,0.4,0.6,0.9,0.8l0.1,0l0.6,0l0.1,0c0.5-0.2,0.7-0.5,0.9-0.8c3-4.4,6.1-9,9.1-13.2l2.1-3.2c0.3-0.5,0.6-0.9,0.9-1.4
					c0.2-0.4,0.3-1,0.1-1.4c-0.2-0.5-0.6-0.8-1.1-0.9C168,29.1,167.7,29.3,167.5,29.5"/>
				<path class="st9" d="M183.3,30.3c0.8,0,1.5-0.6,1.6-1.4c0-0.8-0.6-1.5-1.4-1.6s-1.5,0.6-1.6,1.4
					C181.9,29.5,182.5,30.2,183.3,30.3"/>
				<path class="st9" d="M137.8,60.6c0.8,0,1.5-0.6,1.6-1.4c0-0.8-0.6-1.5-1.4-1.6c-0.8-0.1-1.5,0.6-1.6,1.4
					C136.3,59.9,137,60.6,137.8,60.6"/>
				<path class="st10" d="M142.2,133.2l1.6-9.2c4.6,4.7,12.8,10.7,25.4,12.1c1.1,0.1,2.1,0.2,3.2,0.2c0.6,0,1.3,0,1.8,0l0.1,0.6
					l0.5,2.5l0.5,2.4l2.2,10.2c0,0.1,0,0.4-0.1,0.8c-1.9,0.1-3.6,0.1-5.3,0.1c-17.1-0.6-26.1-10.2-29.2-14.6c-0.5-0.7-1-1.3-1.2-1.7
					l0.2-0.9L142.2,133.2z M165.5,114.5c1.3,0.3,2.8,0.5,4.3,0.7l3.6,16.8c-1.7,0-3.3-0.2-5-0.4c-12.9-1.8-20.4-8.9-23.8-13
					l2.3-13.4C151.1,109,157.2,112.9,165.5,114.5 M157.9,69.9c0.8,0.4,1.8,0.8,2.6,1.1l3.8,18c-1.1-0.3-2.2-0.7-3.3-1.2
					c-3.6-1.5-7.1-3.5-10.1-6.1l2.4-14.4C154.8,68.3,156.2,69.2,157.9,69.9 M154.1,62.1c0.2-1.2,1.1-1.8,2.1-1.8l0.1,0
					c0.9,0,1.9,0.4,2.2,1.7l0.8,4c-0.8-0.4-1.6-0.8-2.4-1.2c-1-0.6-2-1.2-2.9-1.9L154.1,62.1z M158.3,160
					c-17.6-0.8-19.3-6.1-19.4-6.9l1.9-10.8c4.4,5.4,13.9,14,30.6,14.7c0.4,0,0.9,0,1.5,0c0.4,0,0.9,0,1.4,0
					c-0.4,0.2-0.7,0.5-1.2,0.8C170.1,159.2,165.6,160.4,158.3,160L158.3,160z M181.6,151.5l-1.2-5.6l-1.2-5.8l-0.4-2.1l-0.1-0.3
					l-0.5-2.4l-15.6-74.3c-0.6-3.1-3.2-5.1-6.3-5.1c-3.1,0.1-5.6,2.2-6.1,5.3l-12,71l-0.4,2.3l-0.4,2.3l-2.6,15.5l0,0.1l0,0.1
					c0,1,0.2,10.1,23.4,11.2l0,0c9.5,0.4,16.4-1.4,20.3-5.3c3.3-3.3,3.3-6.8,3.3-7.2L181.6,151.5z"/>
				<path class="st10" d="M131,43.9c-0.4-0.5-1.2-0.6-1.7,0l-1.6,1.5l-1.5-1.6c-0.4-0.5-1.2-0.6-1.7,0c-0.5,0.4-0.6,1.2,0,1.7
					L126,47l-1.6,1.5c-0.5,0.4-0.6,1.2,0,1.7c0.2,0.2,0.5,0.4,0.8,0.4c0.3,0.1,0.6-0.1,0.9-0.3l1.6-1.5l1.5,1.6
					c0.2,0.2,0.5,0.4,0.8,0.4c0.3,0.1,0.6-0.1,0.9-0.3c0.5-0.4,0.6-1.2,0-1.7l-1.5-1.6l1.6-1.5C131.4,45.1,131.5,44.3,131,43.9"/>
				<path class="st10" d="M190.5,8.8l1.7-1.4c0.5-0.4,0.6-1.2,0.1-1.7c-0.4-0.5-1.2-0.6-1.7-0.1L188.9,7l-1.4-1.7
					c-0.4-0.5-1.2-0.6-1.7-0.1c-0.5,0.4-0.6,1.2-0.1,1.7l1.4,1.7l-1.7,1.4c-0.5,0.4-0.6,1.2-0.1,1.7c0.2,0.2,0.6,0.4,0.8,0.4
					c0.3,0.1,0.6-0.1,0.9-0.3l1.7-1.4l1.4,1.7c0.2,0.2,0.6,0.4,0.8,0.4c0.3,0.2,0.6,0.1,0.9-0.1c0.5-0.4,0.6-1.2,0.1-1.7L190.5,8.8z
					"/>
				<path class="st10" d="M171.8,48.5c-0.5,0.4-0.6,1.2-0.1,1.7l1.4,1.7l-1.6,1.5c-0.5,0.4-0.6,1.2-0.1,1.7c0.2,0.2,0.6,0.4,0.8,0.4
					c0.3,0.1,0.6-0.1,0.9-0.3l1.7-1.4l1.5,1.6c0.2,0.2,0.6,0.4,0.8,0.4c0.3,0.1,0.6-0.1,0.9-0.3c0.5-0.4,0.6-1.2,0.1-1.7l-1.4-1.7
					l1.6-1.5c0.5-0.4,0.6-1.2,0.1-1.7c-0.4-0.5-1.2-0.6-1.7-0.1l-1.7,1.4l-1.6-1.5C173,48.1,172.3,48,171.8,48.5"/>
				<path class="st10" d="M174.3,8.1c0.8,0,1.5-0.6,1.6-1.4c0-0.8-0.6-1.5-1.4-1.6c-0.8,0-1.5,0.6-1.6,1.4
					C172.8,7.3,173.4,8,174.3,8.1"/>
				<path class="st10" d="M131.4,24.9c-0.8,0-1.5,0.6-1.6,1.4c0,0.8,0.6,1.5,1.4,1.6c0.8,0.1,1.5-0.6,1.6-1.4
					C133,25.7,132.3,25,131.4,24.9"/>
				<path class="st11" d="M293.3,221.4l-8.7,3.1c0,0,8.6,7.4,18.6,11.7c1.9,0.9,3.9,1.5,5.9,2c1.8,0.5,3.6,0.8,5.3,0.8
					c1.7,0,3.3-0.1,4.9-0.5c0.9-0.2,1.8-0.5,2.6-0.9c0.1-0.3,0.3-0.5,0.4-0.7c0-0.1,0.1-0.2,0.1-0.2c0.7-1.2,1.2-2.5,1.5-3.6
					c0.3-1.1,0.5-2,0.5-2.8c-1,0-2.1,0-3,0c-0.9,0-1.9-0.1-2.8-0.1C305.2,229.7,297.6,225.5,293.3,221.4"/>
				<path class="st12" d="M324.5,230.3c-1,0-2.1,0-3,0C322.4,230.3,323.4,230.4,324.5,230.3L324.5,230.3 M323.9,233.2
					c-0.3,1.2-0.8,2.4-1.5,3.6c0,0.1-0.1,0.2-0.1,0.2c0-0.1,0.1-0.2,0.1-0.2C323.1,235.5,323.6,234.3,323.9,233.2"/>
				<path class="st11" d="M136.3,318.5c-0.5-0.1-1,0.4-1.1,0.9l-1,8.7c-0.1,0.6,0.4,1.1,1,1.1l0.1,0l6.7-0.7c0.8-0.1,1.3-1,0.7-1.7
					l-5.7-8C136.9,318.7,136.6,318.5,136.3,318.5"/>
				<path class="st11" d="M301.3,250.6c-0.9,0-2.5,0-4.5-0.1c-0.1,0-0.2,0-0.4,0l-0.3,6.5l-12.5,4.3l3.2,12.5l-11.2,1.7l-1.8,12.2
					l-12-3.5l-5.7,12.7l-13.8-4l-6.9,13l-12.3-2.4l-10.2,14.3l0,0l6.5,0.6l7-10.7l11.7,3.5l6.5-14.3l13.5,4.2l1.3,0.4l3.6-9.2
					l1.2-3.1l5.5,1.6l8.7,2.6l1.4-13.6l0.1-0.3l4.6-0.7l8.6-1.4l-3.7-12.8l-0.1-0.2l0,0l11.6-4.1L301.3,250.6z"/>
				<path class="st12" d="M301.3,250.6L301.3,250.6l-0.3,9.6l0,0L301.3,250.6z M289.3,264.2L289.3,264.2l0.1,0.2L289.3,264.2z
					 M293.1,277.2L293.1,277.2l-8.6,1.4L293.1,277.2L293.1,277.2z M279.8,279.8l-1.4,13.6l0,0L279.8,279.8z M264.1,289l-1.2,3.1
					L264.1,289l5.5,1.6L264.1,289z M257.9,300.9l1.3,0.4L257.9,300.9z M212.9,317.7L212.9,317.7l6.5,0.6L212.9,317.7L212.9,317.7z"
					/>
				<path class="st13" d="M318.6,241l-6.9,3.3c1-0.3,2-0.6,2.9-1c0.3-0.2,0.7-0.3,1.1-0.5C316.7,242.3,317.8,241.8,318.6,241"/>
				<path class="st14" d="M315.6,242.9c-0.3,0.2-0.7,0.3-1.1,0.5C314.9,243.3,315.3,243,315.6,242.9"/>
				<path class="st11" d="M218.3,221C218.3,221,218.3,221,218.3,221c-4.7-0.2-8.5,1.8-11.4,4.5l0,0c0,0.1,0,0.1,0.1,0.3
					c0,0.1,0.1,0.3,0,0.4c0,0,0,0,0,0.1l0,0c0,0.7-0.3,1.2-0.8,1.6c-0.5,0.5-1.4,0.8-2.3,0.9c-0.8,1-1.5,2.1-2.1,3.1
					c-0.4,0.7,0.1,1.4,0.9,1.5c0.2,0,0.5-0.1,0.7-0.2c4.7-3.3,9.7-4.2,14-3.9c2.6,0.1,4.9,0.6,6.6,1.1c0.1,0,0.2,0.1,0.2,0
					c0.8,0,1.3-1,0.8-1.6l-5.8-7.2C218.8,221.2,218.6,221.1,218.3,221"/>
				<path class="st12" d="M206.9,225.5L206.9,225.5c0,0.1,0,0.1,0.1,0.3c0,0.1,0.1,0.3,0,0.4c0-0.1,0-0.2,0-0.4
					C207,225.6,207,225.5,206.9,225.5L206.9,225.5 M206.2,227.8c-0.5,0.5-1.4,0.8-2.3,0.9l0,0C204.8,228.7,205.7,228.4,206.2,227.8"
					/>
				<path class="st11" d="M86,218.7c-0.2,0-0.5,0.1-0.6,0.2l-3.8,4.1c-0.5,0.5-0.1,1.3,0.5,1.3c0.1,0,0.1,0,0.2,0
					c1-0.2,2.3-0.3,3.8-0.2c2.5,0.2,5.5,0.8,8.1,3c0.2,0.1,0.3,0.1,0.5,0.2c0.5,0.1,1-0.6,0.8-1.2c-0.5-1-1.1-2-1.9-3.1
					c-0.5-0.2-1-0.3-1.3-0.6c-0.1,0-0.2-0.2-0.3-0.3c-0.1-0.2-0.3-0.3-0.3-0.5c-0.1,0,0-0.1-0.1-0.2c0-0.1-0.2-0.3-0.2-0.5
					c0,0,0,0,0-0.1C89.8,219.6,88.1,218.8,86,218.7L86,218.7"/>
				<path class="st12" d="M91.3,220.8L91.3,220.8c0,0.1,0.2,0.3,0.2,0.5c0.1,0,0,0.1,0.1,0.2c0.1,0.2,0.2,0.3,0.3,0.5
					c-0.1-0.2-0.3-0.3-0.3-0.5c-0.1,0,0-0.1-0.1-0.2C91.5,221.2,91.3,221,91.3,220.8 M92.2,222.3L92.2,222.3
					c0.3,0.3,0.7,0.5,1.3,0.6l0,0C92.9,222.9,92.6,222.7,92.2,222.3"/>
				<path class="st11" d="M126.7,316.2c-0.3-0.1-0.6,0.1-0.8,0.4l-7.1,9c-0.4,0.6-0.2,1.4,0.5,1.7l3.2,1l2,0.7l2,0.7l0.5,0.2
					c0.1,0,0.2,0,0.3,0.1c0.6,0,1.1-0.5,1.1-1.1l-0.1-2.5l-0.2-4l-0.2-4l-0.1-0.7C127.6,316.6,127.2,316.3,126.7,316.2"/>
				<path class="st11" d="M118.6,314.1c-0.1,0-0.1,0-0.2,0l-9.5,1.2c-0.9,0.1-1.3,1.2-0.6,1.9l4.5,4c0.1,0.2,0.4,0.2,0.7,0.3
					c0.3,0.1,0.6-0.1,0.8-0.4l5-5.1C119.9,315.2,119.5,314.1,118.6,314.1"/>
				<path class="st11" d="M203.7,136.1c-0.1,0-0.4,0-0.4,0c-8.4-0.3-15.9,1.3-21.9,3.4c-0.7,0.2-1.3,0.5-1.9,0.8l1.2,5.8
					c3.7-1.8,12.2-5.6,22.2-5.1c1.6,0.1,3.2,0.2,4.9,0.6l-1.9,14.3c0,0,9-3.1,22.1-2.4c8.6,0.4,18.9,2.3,29.7,7.8l-9.4,16.8
					c0,0,7.6-0.9,16.7-0.5c9.4,0.4,20.5,2.2,26.5,7.9l6.1,0.1l0,0l0.3-0.7l0.5-1.5c-11.8-9.8-30.6-11.4-36.5-11.6
					c-1.1-0.1-1.8,0-1.8,0l-2.1,0l-2.2,0l7.7-12.3c-12-8.5-25.9-10.9-35.5-11.2c-7-0.3-11.7,0.4-11.8,0.3l-4.5,0.7l0,0l0,0l3.3-6.9
					l1.8-3.8C212.1,136.8,207.8,136.2,203.7,136.1"/>
				<path class="st12" d="M203.2,136c-8.4-0.3-15.9,1.3-21.9,3.4C187.3,137.3,194.7,135.7,203.2,136 M214.7,141.9l-3.3,6.9l0,0
					L214.7,141.9z M263.1,158.9L263.1,158.9l-7.7,12.3l2.2,0l-2.2,0L263.1,158.9 M297.7,184.5l-0.3,0.7l0,0l0,0L297.7,184.5z"/>
				<path class="st11" d="M134,137c-1.1-0.1-2.1-0.1-3.3,0c-0.2,0-0.4,0-0.6,0l2.5,15c0-0.1,0.9-10.3,1.9-15
					C134.4,136.9,134.2,136.9,134,137 M132.7,151.9L132.7,151.9L132.7,151.9z"/>
				<path class="st12" d="M134.1,136.9L134.1,136.9c0.1,0,0.4,0,0.5,0.1l0,0C134.4,136.9,134.3,137,134.1,136.9 M130.7,136.9
					c-0.2,0-0.4,0-0.6,0l2.5,15l-2.5-15C130.4,136.9,130.5,136.9,130.7,136.9"/>
				<path class="st11" d="M80.3,160.8c-0.1,0-0.4,0-0.5,0.1c-1,0.1-2.1,0.3-3.2,0.5c-1.9,0.4-3.9,0.9-6.1,1.6l2.3,10.4l0.8,3.5
					C73.6,176.8,73.8,165.3,80.3,160.8"/>
				<path class="st12" d="M79.8,160.8c-1,0.1-2.1,0.3-3.2,0.5C77.7,161.1,78.8,161,79.8,160.8 M70.6,162.9L70.6,162.9l2.3,10.4
					L70.6,162.9"/>
				<path class="st11" d="M102.2,145.7c-0.9,0.1-1.6,0.2-2.4,0.4c-1.1,0.2-2.2,0.4-3.3,0.7c-1,0.3-1.8,0.6-2.8,0.8l1.8,7.8l1.8,7.9
					C97.2,162.6,95.7,150,102.2,145.7 M97.3,163.3L97.3,163.3L97.3,163.3z"/>
				<path class="st12" d="M102.2,145.7c-0.9,0.1-1.6,0.2-2.5,0.3C100.6,145.9,101.3,145.8,102.2,145.7L102.2,145.7 M96.4,146.8
					c-1,0.3-1.8,0.6-2.8,0.8l0,0C94.6,147.3,95.6,147,96.4,146.8 M95.5,155.3l1.8,7.9l0,0l0,0L95.5,155.3z"/>
				<path class="st11" d="M116.2,176.7c-0.4,0-0.8,0.1-1.1,0.5c-15.4,22.5-14.1,74.1-14,74.5c0.2,0,0.4,0,0.8,0
					c2.8,0.1,5.9,1,8.9,2.6c-5.2-38.9,1.9-64,6.7-75.7C117.7,177.6,117,176.8,116.2,176.7"/>
				<path class="st12" d="M101.7,251.7c-0.2,0-0.4,0-0.8,0l0,0C101.3,251.7,101.5,251.7,101.7,251.7c2.8,0.1,5.9,1,8.9,2.6
					C107.6,252.7,104.6,251.9,101.7,251.7"/>
				<path class="st15" d="M193.4,273.9c-0.3-0.1-0.7,0-0.9,0c0.1,0.3,0,0.6,0,0.8c-0.1,0.3,0,0.7,0,0.9c-0.2,0.9-0.5,1.8-1.1,2.5
					c0,0.1-0.1,0.2-0.1,0.3l0,0c0,0.1-0.1,0.2-0.1,0.2c-1.1,1.4-2.8,2.3-4.7,2.6l-2.6,0.4l-0.8,0.1l-8.6,1.2l-4.4,0.6l-4.2,0.6
					l-0.6,0.1c-0.5,0.1-1,0.1-1.4,0.1c-0.7,0-1.3-0.2-1.9-0.4c-0.7-0.3-1.3-0.5-1.9-0.9c-0.6-0.4-1-0.8-1.4-1.4
					c-0.7-0.8-1.2-1.9-1.4-3.1c-4.3,0.2-8.6,0.2-13,0.1l6.7,11.6l0.1,0.2c1,0,2.1,0.1,3.2,0.1c0.3,0.1,0.7,0,0.9,0
					c0.1,0,0.3,0.1,0.4,0c1.6,0.1,3.1,0.2,4.6,0.3c16,1.7,29.9,8.2,33.4,15.7c9.9-3.9,15-9.7,15.4-17.7c0-0.9,0-1.8-0.1-2.9
					c-0.1-1.1-0.2-2.2-0.6-3.4c0-0.2-0.1-0.4-0.1-0.6c-0.6-2-1.7-3.6-3.6-4.9c-0.3-0.1-0.5-0.4-0.8-0.6c-0.2-0.1-0.3-0.1-0.4-0.2
					c-1-0.6-2.2-1.1-3.6-1.6c-0.1,0-0.3-0.1-0.4-0.1c-0.8-0.2-1.5-0.4-2.3-0.5c-0.3-0.1-0.5-0.1-0.8-0.1
					C195.1,274,194.3,274,193.4,273.9"/>
				<path class="st16" d="M157.5,293.8c7.2,2.3,22.5,8,24.4,15.9c3-0.5,5.9-1.1,8.6-2c-0.8-1.7-2.5-3.5-4.8-5.1
					C179.8,298.4,169.5,294.7,157.5,293.8"/>
				<path class="st11" d="M59,204.1c-0.8,0.7-1.9,1.2-2.9,1.8c-2.1,1.1-4.8,1.9-7.9,2.1c0.4,1.1,0.9,2.6,2,4
					c1.6,2.2,4.2,4.1,8.4,4.3c0.2,0,0.4,0,0.8,0c0-0.4,0-0.9,0-1.4C59.2,211.2,59.1,207.6,59,204.1"/>
				<path class="st12" d="M59,204.1c-0.8,0.7-1.9,1.2-2.9,1.8C57.1,205.3,58.1,204.7,59,204.1L59,204.1 M48.3,207.9L48.3,207.9
					c0.4,1.1,0.9,2.6,2,4C49.3,210.5,48.7,209.1,48.3,207.9 M59.3,214.8L59.3,214.8c0,0.4,0,0.9,0,1.4l0,0
					C59.4,215.8,59.4,215.3,59.3,214.8"/>
			</g>
			<g>
				<path class="st1" d="M151.1,371.1L151.1,371.1c-0.2,0-0.4,0-0.7,0c-3.4,0-6.6-1.5-9.7-4.7c-2.9-3-4-7-3.4-11.6
					c0.2-1.7,0.7-3.6,1.4-5.5c1.9-5,4.9-9,5-9.1l0.5-0.6l0.9-0.1c0.1,0,2.3-0.3,5.5-0.3c5-0.3,11.9,1.3,11.9,1.3
					c0.3,0.1,0.6,0.1,1,0.2c5.4,1.4,9.8,3.8,13,7.1c0.1,0,0.1,0.2,0.1,0.2l0,0l0,0l0,0l2.3,2.3l-8.2,2.3c2.7,1.9,6,4.6,7.6,7.9
					l1.4,2.3l-2.2,0.5l-18.9,4.3c-0.5,0.4-1.1,1-2.1,1.6C156.6,369.2,154,370.8,151.1,371.1"/>
				<path class="st0" d="M151.9,366.9c0.8-0.2,1.5-0.5,2.2-0.8c0.5-0.3,1.1-0.7,1.4-0.9c-0.3-1-0.5-1.9-0.8-2.7
					c-0.1-0.4-0.2-0.7-0.2-1c-0.4-1.7-0.6-3.3-0.7-4.8c-0.3-2.6-0.1-4.9,0.1-6.8c0.4-2.8,1.1-4.9,1.7-6.5c-4.1-0.3-7.5-0.1-9-0.1
					c-1.2,1.6-3.8,5.9-4.8,10.5c-0.9,3.5-0.6,7.2,2,10c2.2,2.3,4.5,3.5,6.7,3.4C150.9,367.1,151.4,367,151.9,366.9"/>
				<path class="st3" d="M173,360.3c-0.1,0-0.1,0-0.1-0.2c-1.6-1.7-4.3-4-8-6.4l-4.5-2.2l0.5-0.2l5-1.4l5.1-1.5
					c-2-1.4-5-3.1-8.9-4.1c-0.7-0.2-1.4-0.3-2.1-0.5c-0.1,0-0.2,0-0.3-0.1c-1,1.8-2.6,6.1-2,12.9c0.2,1.4,0.4,2.9,0.8,4.5
					c0.1,0.8,0.4,1.5,0.6,2.3l7.9-1.8L173,360.3z"/>
				<path class="st17" d="M167,361.6l5.9-1.3c-0.1,0-0.1,0-0.1-0.2c-3.7,0.3-9.3,0.7-14.4,1c0.1,0.8,0.4,1.5,0.6,2.3L167,361.6z"/>
				<path class="st18" d="M151.9,366.9c0.8-0.2,1.5-0.5,2.2-0.8c0.5-0.3,1.1-0.7,1.4-0.9c-0.3-1-0.5-1.9-0.8-2.7
					c-0.1-0.4-0.2-0.7-0.2-1c-0.6,0-1,0-1.6-0.1c-5-0.8-9-4.8-11.3-7.5c-0.9,3.5-0.6,7.2,2,10c2.2,2.3,4.5,3.5,6.7,3.4
					C150.9,367.1,151.4,367,151.9,366.9"/>
			</g>
		</g>
	</g>
</g>
</svg>
