<?xml version="1.0" encoding="UTF-8" standalone="no"?>
<svg
   xmlns:svg="http://www.w3.org/2000/svg"
   xmlns="http://www.w3.org/2000/svg"
   xmlns:sodipodi="http://sodipodi.sourceforge.net/DTD/sodipodi-0.dtd"
   xmlns:inkscape="http://www.inkscape.org/namespaces/inkscape"
   version="1.1"
   id="svg939"
   width="800"
   height="900"
   viewBox="0 0 800 900"
   sodipodi:docname="wheel_backbg.svg"
   inkscape:version="1.1-dev (60faa23c, 2020-06-06)">
  <defs
     id="defs943">
    <filter
       inkscape:collect="always"
       style="color-interpolation-filters:sRGB"
       id="filter964"
       x="-0.004331721"
       width="1.0086634"
       y="-0.004308342"
       height="1.0086167">
      <feGaussianBlur
         inkscape:collect="always"
         stdDeviation="0.99782501"
         id="feGaussianBlur966" />
    </filter>
  </defs>
  <sodipodi:namedview
     pagecolor="#ffffff"
     bordercolor="#666666"
     borderopacity="1"
     objecttolerance="10"
     gridtolerance="10"
     guidetolerance="10"
     inkscape:pageopacity="0"
     inkscape:pageshadow="2"
     inkscape:window-width="1280"
     inkscape:window-height="712"
     id="namedview941"
     showgrid="false"
     inkscape:zoom="0.59709234"
     inkscape:cx="282.19098"
     inkscape:cy="335.53212"
     inkscape:window-x="0"
     inkscape:window-y="23"
     inkscape:window-maximized="0"
     inkscape:current-layer="layer2"
     inkscape:pagecheckerboard="true"
     width="800px" />
  <g
     inkscape:groupmode="layer"
     inkscape:label="Image"
     id="g945"
     style="display:inline" />
  <g
     inkscape:groupmode="layer"
     id="layer1"
     inkscape:label="upLayer"
     style="display:inline;opacity:1;filter:url(#filter964)">
    <ellipse
       style="fill:#ffeeaa;stroke:#f2c900;stroke-width:10.5525;stroke-miterlimit:4;stroke-dasharray:21.105, 10.5525;stroke-dashoffset:0;stroke-opacity:1"
       id="path954"
       cx="424.28406"
       cy="461.74139"
       rx="262.60104"
       ry="253.39476" />
  </g>
  <g
     inkscape:groupmode="layer"
     id="layer2"
     inkscape:label="buffi">
    <rect
       y="147.31641"
       x="212.68102"
       height="83.654861"
       width="413.58707"
       id="rect921"
       style="fill:#f4d7d7;stroke:#f2c900;stroke-width:14.7724;stroke-miterlimit:4;stroke-dasharray:none;stroke-dashoffset:0;stroke-opacity:1" />
    <g
       id="g19460"
       transform="matrix(0.58548385,0,0,0.53315523,127.66875,9.8689804)">
      <g
         id="g19458">
        <g
           id="g19456">
          <g
             id="g19330">
            <path
               id="path19306"
               d="m 99.4,295.1 c 0,-2.2 1.8,-3.6 3.7,-4.9 2.5,-1.7 5.2,-3.7 5.4,-7.6 0.3,-5.1 0.2,-8.2 0,-9.9 -0.7,-0.3 -1.4,-0.4 -1.9,-0.6 -1.5,-0.5 -2.9,-1 -4.3,-1.7 -7.1,-3.8 -11.1,-10.4 -8.7,-14.8 1.2,-2.4 4.1,-3.6 7.6,-3.6 2.9,-0.1 6.3,0.8 9.6,2.6 3.9,2.1 6.8,5 8.3,7.9 v 0 c 0,0 6.1,8.4 26.2,-4.5 v 0 c 3.5,-3.5 8.9,-6.4 15.3,-7.9 12.5,-2.8 24,1.1 25.7,8.7 1,4.5 -1.6,9.3 -6.5,13.1 1.5,-0.3 3,-0.6 4.5,-1 5.2,-1.3 10.6,-1.2 15.2,-0.1 1.1,0.3 2.1,0.6 3.1,1 0.9,0.4 1.8,0.8 2.5,1.2 0.3,0.1 0.5,0.3 0.8,0.4 3.4,2.1 5.6,5.1 6.4,8.8 3,13.8 -3.6,24 -18.9,29.3 -8.9,3.1 -20.5,4 -28.8,4.1 -3.9,0.1 -7.6,0 -11.1,-0.2 -5.7,-0.3 -10.7,-0.8 -14,-1.3 -1.3,-0.2 -2.7,-0.5 -4.4,-0.9 -0.7,-0.2 -1.3,-0.3 -2.1,-0.6 -0.7,-0.2 -1.4,-0.4 -2.1,-0.6 -9.6,-2.9 -22.2,-8 -28.2,-12.1 -1.6,-1.3 -3.3,-2.7 -3.3,-4.8 m -6.9,-92.8 c 0,-0.1 0.1,-0.2 0.1,-0.2 0.5,-0.7 1.5,-1.3 2.7,-1.2 1.6,0.1 2.9,1.2 2.8,2.5 0,0.1 -0.1,0.3 -0.1,0.4 0,0.1 -0.1,0.3 -0.2,0.3 -0.9,2.1 -1.4,4.9 -1.6,7.8 -0.1,3 0.1,5.8 0.7,8 0,0.1 0.1,0.3 0.1,0.4 0,0.1 0.1,0.3 0,0.4 -0.1,1.3 -1.4,2.3 -3.1,2.2 -0.2,0 -0.4,0 -0.8,-0.1 -0.9,-0.3 -1.5,-0.8 -1.9,-1.4 -0.1,0 0,-0.1 -0.1,-0.2 -0.1,-0.2 -0.1,-0.4 -0.2,-0.6 -0.9,-2.3 -1.2,-5.5 -1.1,-9 0.6,-3.7 1.5,-7.1 2.7,-9.3 m 109.3,2.6 c 0.6,-0.9 1.7,-1.4 3.1,-1.4 1.8,0.1 3.2,1.4 3.2,2.9 0,0.2 -0.1,0.3 -0.1,0.5 -0.1,0.2 -0.1,0.3 -0.2,0.5 -1,2.4 -1.6,5.5 -1.9,8.9 -0.2,3.4 0.1,6.6 0.8,9.1 v 0.1 c 0,0.1 0,0.1 0.1,0.3 0,0.1 0,0.4 0.1,0.5 -0.1,1.3 -1.4,2.4 -3.1,2.5 -0.1,0 -0.2,0 -0.4,0 -1.3,-0.1 -2.4,-0.8 -3,-1.7 0,-0.1 0,-0.1 -0.1,-0.3 -1.1,-2.7 -1.8,-6.6 -1.5,-11 0.3,-4.3 1.2,-8.3 2.7,-10.8 0.2,0 0.3,-0.1 0.3,-0.1 m -87.1,138.4 2.8,-0.8 2.8,-0.8 16.5,-5.2 0.7,10.2 29.1,-12.7 20.8,5.3 16.8,-22.1 8.8,0.7 6.5,0.6 7,-10.7 11.7,3.5 6.5,-14.3 14.8,4.6 4.8,-12.3 14.3,4.3 1.4,-13.9 13.3,-2.1 -3.8,-13 11.6,-4.1 0.3,-9.6 c -0.9,0 -2.7,-0.1 -4.9,-0.1 -5.4,-0.3 -13,-1.2 -15.2,-3.9 -1.1,-1.3 -1.2,-3 -0.9,-4.5 0.1,-0.8 0.4,-1.5 0.7,-2.2 0.4,-0.8 0.8,-1.5 1.1,-2.2 1,-1.7 2,-3 2,-3 0,0 -0.2,1.2 -0.3,2.7 0,0.7 0,1.4 0.1,2.1 0.1,0.7 0.2,1.4 0.4,2.1 0.2,0.5 0.4,1.1 0.8,1.5 2,2.5 14.7,2.7 16.4,2.7 v 0 l 2.2,-0.1 c 3.1,-0.1 5.7,-0.5 8.1,-1.1 2.7,-0.8 5.1,-1.8 6.9,-3.3 0.2,-0.1 0.4,-0.2 0.5,-0.4 0.6,-0.5 1.2,-1.1 1.6,-1.6 0,-0.1 0.2,-0.2 0.3,-0.3 0.3,-0.3 0.5,-0.6 0.8,-1 0.2,-0.3 0.3,-0.6 0.6,-0.9 1.4,-2.4 1.9,-4.8 2,-6.4 -2.1,0.1 -3.9,0.1 -5.8,-0.1 -13.4,-0.6 -21.1,-4.8 -25.3,-8.9 -4,-3.9 -5,-7.6 -5.1,-7.9 l -0.2,-0.7 9.3,-27.6 0.7,-2.1 C 284.1,172 260,172 259.8,171.9 h -4.3 l 7.7,-12.3 c -20.6,-14.8 -47,-11 -47.3,-10.9 l -4.5,0.7 5.2,-10.6 c -14.9,-4.1 -28,-1.5 -37.3,2.1 l 1.2,5.8 1.2,5.6 v 0.1 c 0,0.4 0.1,3.9 -3.3,7.2 -3.9,3.9 -10.7,5.8 -20.3,5.3 v 0 c -23.2,-1.1 -23.5,-10.2 -23.4,-11.2 v -0.1 -0.1 l 2.6,-15.5 c -0.8,-0.1 -1.8,-0.2 -2.7,-0.3 -1.4,-0.1 -3,-0.1 -4.5,0 l 2.5,15 -4.3,-2.2 c -0.2,-0.1 -12.6,-5.8 -26.4,-4.3 -2.8,0.3 -5.7,0.9 -8.4,1.9 l 3.5,15.7 -4.2,-1.6 c -2.2,-0.8 -6.8,-1.6 -12.8,-0.9 -2.9,0.3 -6.3,1 -9.7,2.2 l 3,13.9 -9.8,0.5 c -0.1,3.6 -0.2,11.4 -0.1,21 l 0.4,0.2 c 0,0.1 -0.2,0.3 -0.4,0.7 0.2,14.6 1.1,33.2 3.9,47.6 l 12.1,2.4 -2.2,3 c -0.1,0.3 -4.4,6.3 -2.6,15.1 l 10.9,10.2 5.4,22.9 10.1,3.8 -2.8,27.3 15.6,-4 -4.9,17.7 z"
               class="st0" />
            <path
               id="path19308"
               d="m 48.3,207.9 c 1,3.2 3.8,8.3 11.1,8.4 -0.3,-4.2 -0.4,-8.3 -0.4,-12.2 -2.6,1.9 -6.1,3.6 -10.7,3.8"
               class="st0" />
            <path
               id="path19310"
               d="m 48.3,207.9 c 1,3.2 3.8,8.3 11.1,8.4 -0.3,-4.2 -0.4,-8.3 -0.4,-12.2 -2.6,1.9 -6.1,3.6 -10.7,3.8 m 280.9,19.7 c 0,0.2 0.4,4.5 -1.6,9.3 v 0 c -0.1,0.2 -0.2,0.3 -0.2,0.6 v 0 c -0.5,1.3 -1.3,2.6 -2.2,3.8 -0.1,0 -0.1,0 -0.2,0 -0.2,0.2 -0.4,0.6 -0.7,0.8 -4,4.6 -10.2,7.3 -18.3,8 l -0.2,4.2 -0.3,9.3 -10.5,3.7 4,13.8 -14.9,2.4 -1.7,16 -15.6,-4.7 -4.9,12.4 -15,-4.7 -6.5,14.3 -12.2,-3.7 -6.5,10 -15.5,-1.3 -17.1,22.5 -22.2,-5.7 -4,1.8 -29.9,13 -0.6,-10.8 -15.2,4.9 c -1.5,0.2 -2.8,0.8 -4.1,1.4 -0.7,0.2 -1.5,0.3 -2.1,0.7 v 0 l -8.8,2.8 5.1,-18.1 -14.2,3.7 3.1,-30.4 -9.1,-3.4 -5.6,-24 -10.9,-10.2 -0.2,-0.7 c -1.7,-7.3 0,-13.1 1.4,-16.5 l -8.4,-1.6 -0.3,-1.5 c -1.8,-8.7 -3,-18.9 -3.6,-28.9 -0.4,0 -0.9,0 -1.3,0 -13,-0.6 -14.8,-14.1 -14.7,-14.3 l -0.3,-2.5 2.5,0.1 c 0.1,0 0.2,0 0.2,0 6.6,0.3 10.7,-2.9 12.7,-5.2 -0.2,-13.1 0.2,-22.8 0.3,-23.6 l 0.1,-2.1 8.5,-0.5 -2.5,-12.8 1.9,-0.8 c 10.7,-4.1 19.2,-3.7 23.8,-2.9 l -2.7,-11.5 1.8,-0.8 c 14.4,-6.1 29.5,-2.3 36.6,0.2 l -1.9,-11.2 2.4,-0.4 c 3.9,-0.6 7.6,-0.5 11.1,-0.1 l -0.4,2.3 -0.4,2.3 c -0.8,-0.1 -1.8,-0.2 -2.7,-0.3 -1.4,-0.1 -3,-0.1 -4.5,0 l 2.5,15 -4,-1.8 c -0.2,-0.1 -12.6,-5.8 -26.4,-4.3 -2.8,0.3 -5.7,0.9 -8.4,1.9 l 3.5,15.7 -4.2,-1.6 c -2.2,-0.8 -6.8,-1.6 -12.8,-0.9 -2.9,0.3 -6.3,1 -9.7,2.2 l 3,13.9 -9.8,0.5 c -0.1,3.6 -0.2,11.4 -0.1,21 l 0.4,0.2 c 0,0.1 -0.2,0.3 -0.4,0.7 0.2,14.6 1.1,33.2 3.9,47.6 l 12.1,2.4 -2.2,3 c -0.1,0.3 -4.4,6.3 -2.6,15.1 l 10.9,10.2 5.4,22.9 10.1,3.8 -2.8,27.3 15.6,-4 -4.9,17.7 5.5,-1.7 2.8,-0.9 2.8,-0.8 16.5,-5.2 0.7,10.2 29.1,-12.7 20.8,5.3 16.8,-22.1 8.8,0.7 6.5,0.6 7,-10.7 11.7,3.5 6.5,-14.3 14.8,4.6 4.8,-12.3 14.3,4.3 1.4,-13.9 13.2,-2.2 -3.8,-13 11.6,-4.1 0.3,-9.6 c -0.9,0 -2.7,-0.1 -4.9,-0.1 -5.4,-0.3 -13,-1.2 -15.2,-3.9 -1.1,-1.3 -1.2,-3 -0.9,-4.5 0.2,-0.7 0.4,-1.5 0.7,-2.2 0.3,-0.7 0.8,-1.5 1.1,-2.2 1,-1.7 2,-3 2,-3 0,0 -0.2,1.2 -0.3,2.7 0,0.7 0,1.4 0.1,2.1 0.1,0.7 0.2,1.4 0.4,2.1 0.2,0.5 0.4,1.1 0.8,1.5 2,2.5 14.7,2.7 16.4,2.7 v 0 l 2.2,-0.1 c 3.1,-0.1 5.7,-0.5 8.1,-1.1 2.7,-0.8 5.1,-1.8 6.9,-3.3 0.2,-0.1 0.4,-0.2 0.5,-0.4 0.6,-0.5 1.2,-1.1 1.6,-1.6 0,-0.1 0.1,-0.3 0.3,-0.3 0.3,-0.3 0.5,-0.6 0.8,-1 0.2,-0.3 0.3,-0.6 0.6,-0.9 1.4,-2.4 1.9,-4.8 2,-6.4 -2.1,0.1 -3.9,0.1 -5.8,-0.1 -13.4,-0.6 -21.1,-4.8 -25.3,-8.9 -4,-3.9 -5,-7.6 -5.1,-7.9 l -0.2,-0.7 9.3,-27.6 0.7,-2.1 C 283.9,172 259.8,172 259.6,171.9 h -4.3 l 7.7,-12.3 c -20.6,-14.8 -47,-11 -47.3,-10.9 l -4.4,0.7 5.2,-10.6 c -14.9,-4.1 -28,-1.5 -37.3,2.1 l -0.4,-2.1 -0.1,-0.3 -0.5,-2.4 c 10.5,-3.9 25.3,-6.6 42.4,-1 l 2.6,0.9 -3.8,7.7 c 9.2,-0.6 30.7,-0.2 48.3,13.6 l 1.7,1.3 -5.5,8.9 c 8.3,0.6 26.8,3 38.6,13.8 l 1.2,1 -10.6,31.3 c 1.1,2.8 7,14.2 33.6,12.6 l 2.2,-0.1 z"
               class="st1" />
            <path
               id="path19312"
               d="m 133.9,280 c 0.5,-0.5 0.9,-1.2 1.2,-2 -1.5,-0.2 -3,-0.4 -4.5,-0.7 -0.5,-0.1 -0.9,-0.2 -1.5,-0.3 -3.6,-0.5 -7.4,-1.1 -11,-1.9 -0.1,1.8 0.8,3.4 2.2,3.7 l 9.3,1.5 2.4,0.4 c 0.6,0.2 1.3,-0.1 1.9,-0.7 m 48.1,29.7 c 3,-0.5 5.9,-1.1 8.6,-2 -3.1,-6.1 -16.4,-12.6 -33,-14 -1.2,-0.1 -2.5,-0.1 -3.7,-0.1 0,0 -0.1,0 -0.1,0 -1.9,-0.1 -3.8,-0.1 -5.5,0 -2.2,0.1 -4.5,0.2 -6.7,0.5 -10.9,1.3 -19.8,4.5 -23.4,8.8 5,2 10.2,3.9 14.7,5.2 0.7,0.2 1.4,0.4 2.1,0.6 0.7,0.2 1.4,0.3 2.1,0.5 1.1,0.3 2.2,0.4 3.1,0.6 8.2,1.2 26.7,2.3 41.8,-0.1 m 6.8,-33 c 0.5,-0.6 0.8,-1.4 0.8,-2.2 0,-0.2 0,-0.4 -0.1,-0.5 -0.1,0 -0.4,0 -0.5,0.1 l -2.3,0.3 c -0.5,0.1 -1,0.2 -1.6,0.4 -0.4,0.1 -0.7,0.2 -1.1,0.3 -8,1.9 -15.9,3.1 -23.9,3.6 0.2,0.8 0.7,1.6 1.5,2.1 0.9,0.6 2,0.9 3.1,0.7 l 12.5,-1.9 8.3,-1.2 h 0.4 v 0 c 0.8,-0.1 1.5,-0.4 2.1,-0.9 0.2,-0.3 0.5,-0.5 0.8,-0.8 m 4.5,30.1 c 12.4,-4.8 17.2,-12.7 14.7,-24 -0.5,-2.5 -2.1,-4.6 -4.6,-6.1 -1.2,-0.8 -2.6,-1.3 -4,-1.8 -1.2,-0.3 -2.3,-0.6 -3.6,-0.8 -1.2,-0.2 -2.3,-0.3 -3.5,-0.3 0,0.6 0,1.2 0,1.7 -0.2,0.9 -0.6,1.9 -1.2,2.8 0,0.1 -0.1,0.2 -0.1,0.3 -1.1,1.4 -2.8,2.3 -4.7,2.6 l -3.4,0.5 -8.6,1.2 -8.6,1.2 -0.6,0.1 c -0.5,0.1 -1,0.1 -1.4,0.1 -1.3,-0.1 -2.7,-0.5 -3.8,-1.2 -1.6,-1.1 -2.6,-2.6 -2.8,-4.4 -4.3,0.2 -8.6,0.2 -13,0.1 -0.7,0 -1.4,0 -2.1,-0.1 -1.3,0 -2.5,-0.2 -3.8,-0.3 -0.4,1.5 -1.1,2.8 -2.2,3.8 -1.1,1 -2.5,1.6 -3.8,1.5 -0.2,0 -0.4,0 -0.5,-0.1 L 120,281.8 c -3.1,-0.5 -5,-3.7 -4.6,-7.2 -0.8,-0.2 -1.6,-0.4 -2.4,-0.7 0.1,2 0.1,4.9 -0.1,8.8 -0.4,5.9 -4.4,8.9 -7.1,10.8 -0.7,0.5 -1.6,1.2 -1.9,1.6 0.1,0.2 0.5,0.7 1.4,1.2 2.4,1.7 6.1,3.6 10.3,5.4 4.8,-6.6 18.3,-10.9 34.8,-11.1 0.2,0 0.4,0 0.7,0 1,0 2.1,0.1 3.2,0.1 0.4,0 0.9,0 1.4,0.1 1.6,0.1 3.1,0.2 4.6,0.3 15.7,1.7 29.6,8.2 33,15.7 m -48.1,-49 c 3.5,-3.5 8.9,-6.4 15.3,-7.9 12.5,-2.8 24,1.1 25.7,8.7 1,4.5 -1.6,9.3 -6.5,13.1 1.5,-0.3 3,-0.6 4.5,-1 5.2,-1.3 10.6,-1.2 15.1,-0.2 1.1,0.3 2.1,0.6 3.1,1 0.9,0.4 1.8,0.8 2.5,1.2 0.3,0.1 0.5,0.3 0.8,0.4 3.4,2.1 5.6,5.1 6.4,8.8 3,13.8 -3.6,24 -18.9,29.3 -8.9,3.1 -20.5,4 -28.7,4.1 -3.9,0.1 -7.6,0.1 -11.1,-0.2 -5.7,-0.3 -10.7,-0.8 -14,-1.3 -1.3,-0.2 -2.7,-0.5 -4.4,-0.9 -0.7,-0.2 -1.3,-0.3 -2.1,-0.6 -0.7,-0.2 -1.4,-0.4 -2.1,-0.6 -9.6,-2.9 -22.2,-8 -28.2,-12.1 -1.6,-1.1 -3.3,-2.5 -3.3,-4.7 0,-2.2 1.8,-3.6 3.7,-4.9 2.5,-1.7 5.2,-3.7 5.4,-7.6 0.3,-5.1 0.2,-8.2 0,-9.9 -0.7,-0.3 -1.4,-0.4 -1.9,-0.6 -1.4,-0.4 -2.9,-1 -4.3,-1.7 -7.1,-3.8 -11.1,-10.4 -8.7,-14.8 1.2,-2.4 4.1,-3.6 7.6,-3.6 0.2,0 0.4,0 0.8,0 2.8,0.1 5.9,1 8.9,2.6 3.9,2.1 6.8,5 8.3,7.9 -0.2,-0.1 5.8,8.3 26.1,-4.5"
               class="st1" />
            <path
               id="path19314"
               d="m 208,206.8 c -0.1,0.2 -0.1,0.3 -0.2,0.5 -1,2.4 -1.6,5.5 -1.9,8.9 -0.2,3.4 0.1,6.6 0.8,9.1 v 0.1 c 0,0.1 0,0.1 0.1,0.3 0.1,0.2 0,0.4 0.1,0.5 -0.1,1.3 -1.4,2.4 -3.1,2.5 -0.1,0 -0.2,0 -0.4,0 -1.3,-0.1 -2.4,-0.8 -2.9,-1.8 -0.1,0 0,-0.1 -0.1,-0.3 -1.1,-2.7 -1.8,-6.6 -1.5,-11 0.3,-4.3 1.3,-8.2 2.6,-10.7 0,-0.1 0.1,-0.2 0.1,-0.3 0.6,-0.9 1.7,-1.4 3.1,-1.4 1.8,0.1 3.2,1.4 3.2,2.9 0.2,0.4 0.2,0.5 0.1,0.7"
               class="st1" />
            <path
               id="path19316"
               d="m 189.5,274.5 c 0,0.8 -0.3,1.6 -0.8,2.2 -0.2,0.2 -0.5,0.5 -0.8,0.7 -0.6,0.5 -1.3,0.7 -2.1,0.9 v 0 h -0.4 l -8.3,1.2 -12.5,1.9 c -1.1,0.2 -2.2,-0.1 -3.1,-0.7 -0.7,-0.5 -1.3,-1.3 -1.5,-2.1 8.1,-0.6 15.9,-1.8 23.9,-3.6 0.4,-0.1 0.8,-0.1 1.1,-0.3 0.5,-0.2 1,-0.2 1.6,-0.4 l 2.3,-0.3 c 0.1,0 0.4,0 0.5,-0.1 0.1,0.2 0.1,0.5 0.1,0.6"
               class="st2" />
            <path
               id="path19318"
               d="m 135.1,278.1 c -0.2,0.8 -0.6,1.5 -1.2,2 -0.7,0.5 -1.3,0.7 -2,0.7 l -2.4,-0.4 -9.3,-1.5 c -1.4,-0.2 -2.3,-1.9 -2.2,-3.7 3.7,0.8 7.4,1.4 11,1.9 0.5,0.1 0.9,0.2 1.5,0.3 1.5,0.2 3.1,0.5 4.6,0.7"
               class="st2" />
            <path
               id="path19320"
               d="m 98.1,203.8 c 0,0.1 -0.1,0.3 -0.2,0.3 -0.9,2.1 -1.4,4.9 -1.6,7.8 -0.2,2.9 0.1,5.8 0.7,8 0,0.1 0.1,0.3 0.1,0.4 0,0.1 0.1,0.3 0,0.4 -0.1,1.3 -1.4,2.3 -3.1,2.2 -0.2,0 -0.4,0 -0.8,-0.1 -0.9,-0.3 -1.5,-0.8 -1.9,-1.4 -0.1,0 0,-0.1 -0.1,-0.2 -0.1,-0.2 -0.1,-0.4 -0.2,-0.6 -0.9,-2.3 -1.2,-5.5 -1.1,-9 0.2,-3.8 1.1,-7.2 2.4,-9.5 0,-0.1 0,-0.1 0.1,-0.2 0.4,-0.8 1.5,-1.3 2.7,-1.2 1.6,0.1 2.9,1.2 2.8,2.5 0.3,0.3 0.2,0.4 0.2,0.6"
               class="st1" />
            <path
               id="path19322"
               d="m 203.6,276.7 c -1.2,-0.8 -2.6,-1.3 -4,-1.8 -1.2,-0.3 -2.3,-0.6 -3.6,-0.8 -1.2,-0.2 -2.3,-0.3 -3.5,-0.3 0,0.6 0,1.2 0,1.7 -0.2,0.9 -0.6,1.9 -1.2,2.8 0,0.1 -0.1,0.2 -0.1,0.3 -1.1,1.4 -2.8,2.3 -4.7,2.6 l -3.4,0.5 -8.6,1.2 -8.6,1.2 -0.6,0.1 c -0.5,0.1 -1,0.1 -1.4,0.1 -1.3,-0.1 -2.7,-0.5 -3.8,-1.2 -1.6,-1.1 -2.6,-2.6 -2.8,-4.4 -4.3,0.2 -8.6,0.2 -13,0.1 -0.7,0 -1.4,0 -2.1,-0.1 -1.3,0 -2.5,-0.2 -3.8,-0.3 -0.4,1.5 -1.1,2.8 -2.2,3.8 -1.1,1 -2.5,1.6 -3.8,1.5 -0.2,0 -0.4,0 -0.5,-0.1 l -11.7,-1.8 c -3.1,-0.5 -5,-3.7 -4.6,-7.2 -0.8,-0.2 -1.6,-0.4 -2.4,-0.7 0.1,2 0.1,4.9 -0.1,8.8 -0.4,5.9 -4.4,8.9 -7.1,10.8 -0.7,0.5 -1.6,1.2 -1.9,1.6 0.1,0.2 0.5,0.7 1.5,1.2 2.4,1.7 6.1,3.6 10.3,5.4 4.8,-6.6 18.3,-10.9 34.8,-11.1 0.2,0 0.4,0 0.7,0 1,0 2.1,0.1 3.2,0.1 0.4,0 0.9,0 1.4,0.1 1.6,0.1 3.1,0.2 4.6,0.3 16,1.7 29.9,8.2 33.4,15.7 12.4,-4.8 17.2,-12.7 14.7,-24 -1.1,-2.4 -2.6,-4.6 -5.1,-6.1"
               class="st3" />
            <path
               id="path19324"
               d="m 157.5,293.8 c -1.2,-0.1 -2.5,-0.1 -3.7,-0.1 0,0 -0.1,0 -0.1,0 -1.9,-0.1 -3.8,-0.1 -5.5,0 -2.2,0.1 -4.5,0.2 -6.7,0.5 -10.9,1.3 -19.9,4.5 -23.4,8.8 5,2 10.2,3.9 14.7,5.2 0.7,0.2 1.4,0.4 2.1,0.6 0.7,0.2 1.4,0.3 2.1,0.5 1.1,0.3 2.2,0.4 3.1,0.6 8.3,1.2 26.9,2.4 41.9,-0.1 3,-0.5 5.9,-1.1 8.6,-2 -3.1,-6.1 -16.6,-12.7 -33.1,-14"
               class="st4" />
            <path
               id="path19326"
               d="m 178.6,258.3 c -1.7,-1.7 -6,-0.4 -9.8,3.1 -3.8,3.5 -5.6,7.8 -4,9.5 1.7,1.7 6,0.4 9.8,-3.1 3.8,-3.5 5.7,-7.8 4,-9.5"
               class="st5" />
            <path
               id="path19328"
               d="m 99.2,258.1 c -1.2,0.8 -0.6,3.5 1.2,5.8 0.6,0.8 1.2,1.5 1.9,2 1.2,0.9 2.3,1.3 3.1,1 0,-0.1 0.1,0 0.2,-0.1 1.2,-0.8 0.6,-3.5 -1.2,-5.8 -1.8,-2.4 -4.1,-3.7 -5.2,-2.9"
               class="st5" />
          </g>
          <polygon
             id="polygon19332"
             points="157.1,30.1 165.1,25.2 157,21.7 "
             class="st6" />
          <polygon
             id="polygon19334"
             points="154,21.7 145.9,25.5 154.3,30.3 "
             class="st6" />
          <g
             id="g19338">
            <path
               id="path19336"
               d="m 162.8,21.1 1.8,0.8 -7.8,-12.5 c 0,3 0.1,6.1 0.2,9.1 1.9,0.8 3.9,1.7 5.8,2.6"
               class="st6" />
          </g>
          <polygon
             id="polygon19340"
             points="154.6,18.9 154.1,18.9 "
             class="st6" />
          <g
             id="g19442">
            <path
               id="path19342"
               d="m 181.6,151.5 -1.2,-5.6 -1.2,-5.8 -0.4,-2.1 -0.1,-0.3 -0.5,-2.4 L 162.6,61 c -0.6,-3.1 -3.2,-5.1 -6.3,-5.1 -3.1,0.1 -5.6,2.2 -6.1,5.3 l -12,71 -0.4,2.3 -0.4,2.3 -2.6,15.5 v 0.1 0.1 c 0,1 0.2,10.1 23.4,11.2 v 0 c 9.5,0.4 16.4,-1.4 20.3,-5.3 3.3,-3.3 3.3,-6.8 3.3,-7.2 z"
               class="st6" />
            <path
               id="path19344"
               d="m 153.9,9.4 -7.5,12.8 c 2.5,-1.2 5.1,-2.4 7.7,-3.6 -0.1,-3.1 -0.1,-6.2 -0.2,-9.2"
               class="st6" />
            <path
               id="path19346"
               d="m 157.3,44.2 6,-8.8 c -2,1.3 -4.1,2.5 -6.2,3.8 z"
               class="st6" />
            <path
               id="path19348"
               d="m 154.4,44.2 c 0,-1.6 0,-3.4 -0.1,-5 -2.1,-1.2 -4.2,-2.4 -6.3,-3.5 z"
               class="st6" />
            <path
               id="path19350"
               d="m 159.4,66 -0.8,-4 c -0.3,-1.3 -1.3,-1.8 -2.2,-1.7 h -0.1 c -0.9,0.1 -1.8,0.6 -2.1,1.8 l -0.1,0.8 c 1,0.7 1.9,1.3 2.9,1.9 0.8,0.4 1.6,0.9 2.4,1.2"
               class="st6" />
            <path
               id="path19352"
               d="m 156.5,60.2 c 0.8,0 1.7,0.5 2,1.6 -0.3,-1 -1.1,-1.5 -2,-1.6"
               class="st7" />
            <path
               id="path19354"
               d="m 156.5,60.2 v 0 h -0.1 -0.1 l 0.8,4.5 c 0.8,0.4 1.6,0.9 2.4,1.2 l -0.8,-4 v -0.1 c -0.5,-1 -1.3,-1.5 -2.2,-1.6 v 0"
               class="st8" />
            <path
               id="path19356"
               d="m 157.9,69.9 3.1,17.9 c 1.1,0.4 2.2,0.8 3.3,1.2 l -3.8,-17.9 c -1,-0.4 -1.8,-0.8 -2.6,-1.2"
               class="st8" />
            <path
               id="path19358"
               d="m 161.7,92.6 3,17.6 c 1.3,0.3 2.7,0.6 4.1,0.8 l -3.7,-17.5 c -1,-0.2 -2.2,-0.5 -3.4,-0.9"
               class="st8" />
            <path
               id="path19360"
               d="m 168.5,131.8 c 1.3,0.2 2.7,0.3 4.1,0.4 -1.5,-0.1 -2.8,-0.3 -4.1,-0.4 m 4.8,0.4 v 0 0 m -0.7,0 v 0 0"
               class="st7" />
            <path
               id="path19362"
               d="m 165.5,114.5 2.9,17.2 c 1.3,0.2 2.7,0.3 4.1,0.4 v 0 0 c 0.2,0 0.4,0 0.7,0 0,0 0,0 0.1,0 l -3.6,-16.8 c -1.4,-0.2 -2.8,-0.4 -4.2,-0.8"
               class="st8" />
            <path
               id="path19364"
               d="m 169.2,136 0.6,3.2 0.4,2.5 0.4,2.5 1.4,8.6 c 1.7,0 3.4,0 5.3,-0.1 0.1,-0.4 0.1,-0.6 0.1,-0.8 l -2.2,-10.2 -0.5,-2.4 -0.5,-2.4 -0.1,-0.6 c -0.6,0 -1.3,0 -1.8,0 -1.1,-0.1 -2.1,-0.1 -3.1,-0.3"
               class="st8" />
            <path
               id="path19366"
               d="m 174.2,157 c -0.4,0 -0.9,0 -1.4,0 l 0.1,0.8 c 0.5,-0.2 0.9,-0.5 1.3,-0.8"
               class="st8" />
            <path
               id="path19368"
               d="m 154,21.7 0.1,8.5 -8.3,-4.6 z M 153.9,9.4 c 0,3 0.1,6.1 0.2,9.2 -2.5,1.2 -5.1,2.4 -7.7,3.6 z m 0.2,9.5 h 0.6 z m 3,11.2 -0.1,-8.5 8.1,3.6 z m -0.3,-20.7 7.8,12.5 -1.8,-0.8 c -1.9,-0.9 -3.9,-1.6 -5.9,-2.5 0,-3.1 -0.1,-6.2 -0.1,-9.2 m -14.6,17.4 3,1.7 c 3.1,1.8 6.4,3.6 9.7,5.4 0.3,0.1 0.6,0.2 0.8,0.2 h 0.1 c 0.4,0 0.6,-0.1 0.9,-0.3 0.9,-0.5 1.8,-1.1 2.6,-1.6 l 9.6,-6 c 0.1,0 0.5,-0.3 0.7,-0.8 0.2,-0.5 0,-0.9 -0.2,-1.4 -4.3,-6.9 -8.6,-13.7 -12.8,-20.5 -0.2,-0.3 -0.5,-0.7 -1,-0.8 h -0.1 -0.4 -0.2 c -0.6,0.2 -0.8,0.7 -0.9,0.8 -3.2,5.4 -6.5,11 -9.6,16.4 l -2.7,4.5 c -0.2,0.4 -0.4,0.8 -0.2,1.2 0,0.5 0.2,0.9 0.7,1.2"
               class="st9" />
            <path
               id="path19370"
               d="m 154.3,39.2 c 0,1.6 0,3.4 0.1,5 l -6.3,-8.5 c 2,1.1 4.1,2.3 6.2,3.5 m 3,5 -0.1,-5 c 2.1,-1.2 4.1,-2.5 6.2,-3.8 z m 10.2,-14.7 -4.3,2.6 c -2.5,1.5 -5,3.1 -7.5,4.6 -3,-1.7 -6.1,-3.5 -9,-5.1 l -1.9,-1.1 c -0.3,-0.2 -0.7,-0.4 -1,-0.6 -0.4,-0.2 -0.9,-0.3 -1.3,-0.1 -0.5,0.2 -0.7,0.5 -0.8,1 -0.1,0.6 0.2,1.1 0.3,1.3 4.3,5.8 8.6,11.6 12.8,17.2 0.1,0.2 0.4,0.6 0.9,0.8 h 0.1 0.6 0.1 c 0.5,-0.2 0.7,-0.5 0.9,-0.8 3,-4.4 6.1,-9 9.1,-13.2 l 2.1,-3.2 c 0.3,-0.5 0.6,-0.9 0.9,-1.4 0.2,-0.4 0.3,-1 0.1,-1.4 -0.2,-0.5 -0.6,-0.8 -1.1,-0.9 -0.5,-0.1 -0.8,0.1 -1,0.3"
               class="st9" />
            <path
               id="path19372"
               d="m 183.3,30.3 c 0.8,0 1.5,-0.6 1.6,-1.4 0,-0.8 -0.6,-1.5 -1.4,-1.6 -0.8,-0.1 -1.5,0.6 -1.6,1.4 0,0.8 0.6,1.5 1.4,1.6"
               class="st9" />
            <path
               id="path19374"
               d="m 137.8,60.6 c 0.8,0 1.5,-0.6 1.6,-1.4 0,-0.8 -0.6,-1.5 -1.4,-1.6 -0.8,-0.1 -1.5,0.6 -1.6,1.4 -0.1,0.9 0.6,1.6 1.4,1.6"
               class="st9" />
            <path
               id="path19376"
               d="m 142.2,133.2 1.6,-9.2 c 4.6,4.7 12.8,10.7 25.4,12.1 1.1,0.1 2.1,0.2 3.2,0.2 0.6,0 1.3,0 1.8,0 l 0.1,0.6 0.5,2.5 0.5,2.4 2.2,10.2 c 0,0.1 0,0.4 -0.1,0.8 -1.9,0.1 -3.6,0.1 -5.3,0.1 -17.1,-0.6 -26.1,-10.2 -29.2,-14.6 -0.5,-0.7 -1,-1.3 -1.2,-1.7 l 0.2,-0.9 z m 23.3,-18.7 c 1.3,0.3 2.8,0.5 4.3,0.7 l 3.6,16.8 c -1.7,0 -3.3,-0.2 -5,-0.4 -12.9,-1.8 -20.4,-8.9 -23.8,-13 l 2.3,-13.4 c 4.2,3.8 10.3,7.7 18.6,9.3 m -7.6,-44.6 c 0.8,0.4 1.8,0.8 2.6,1.1 l 3.8,18 c -1.1,-0.3 -2.2,-0.7 -3.3,-1.2 -3.6,-1.5 -7.1,-3.5 -10.1,-6.1 l 2.4,-14.4 c 1.5,1 2.9,1.9 4.6,2.6 m -3.8,-7.8 c 0.2,-1.2 1.1,-1.8 2.1,-1.8 h 0.1 c 0.9,0 1.9,0.4 2.2,1.7 l 0.8,4 c -0.8,-0.4 -1.6,-0.8 -2.4,-1.2 -1,-0.6 -2,-1.2 -2.9,-1.9 z m 4.2,97.9 c -17.6,-0.8 -19.3,-6.1 -19.4,-6.9 l 1.9,-10.8 c 4.4,5.4 13.9,14 30.6,14.7 0.4,0 0.9,0 1.5,0 0.4,0 0.9,0 1.4,0 -0.4,0.2 -0.7,0.5 -1.2,0.8 -3,1.4 -7.5,2.6 -14.8,2.2 z m 23.3,-8.5 -1.2,-5.6 -1.2,-5.8 -0.4,-2.1 -0.1,-0.3 -0.5,-2.4 L 162.6,61 c -0.6,-3.1 -3.2,-5.1 -6.3,-5.1 -3.1,0.1 -5.6,2.2 -6.1,5.3 l -12,71 -0.4,2.3 -0.4,2.3 -2.6,15.5 v 0.1 0.1 c 0,1 0.2,10.1 23.4,11.2 v 0 c 9.5,0.4 16.4,-1.4 20.3,-5.3 3.3,-3.3 3.3,-6.8 3.3,-7.2 z"
               class="st10" />
            <path
               id="path19378"
               d="m 131,43.9 c -0.4,-0.5 -1.2,-0.6 -1.7,0 l -1.6,1.5 -1.5,-1.6 c -0.4,-0.5 -1.2,-0.6 -1.7,0 -0.5,0.4 -0.6,1.2 0,1.7 l 1.5,1.5 -1.6,1.5 c -0.5,0.4 -0.6,1.2 0,1.7 0.2,0.2 0.5,0.4 0.8,0.4 0.3,0.1 0.6,-0.1 0.9,-0.3 l 1.6,-1.5 1.5,1.6 c 0.2,0.2 0.5,0.4 0.8,0.4 0.3,0.1 0.6,-0.1 0.9,-0.3 0.5,-0.4 0.6,-1.2 0,-1.7 l -1.5,-1.6 1.6,-1.5 c 0.4,-0.6 0.5,-1.4 0,-1.8"
               class="st10" />
            <path
               id="path19380"
               d="m 190.5,8.8 1.7,-1.4 c 0.5,-0.4 0.6,-1.2 0.1,-1.7 -0.4,-0.5 -1.2,-0.6 -1.7,-0.1 L 188.9,7 187.5,5.3 c -0.4,-0.5 -1.2,-0.6 -1.7,-0.1 -0.5,0.4 -0.6,1.2 -0.1,1.7 l 1.4,1.7 -1.7,1.4 c -0.5,0.4 -0.6,1.2 -0.1,1.7 0.2,0.2 0.6,0.4 0.8,0.4 0.3,0.1 0.6,-0.1 0.9,-0.3 l 1.7,-1.4 1.4,1.7 c 0.2,0.2 0.6,0.4 0.8,0.4 0.3,0.2 0.6,0.1 0.9,-0.1 0.5,-0.4 0.6,-1.2 0.1,-1.7 z"
               class="st10" />
            <path
               id="path19382"
               d="m 171.8,48.5 c -0.5,0.4 -0.6,1.2 -0.1,1.7 l 1.4,1.7 -1.6,1.5 c -0.5,0.4 -0.6,1.2 -0.1,1.7 0.2,0.2 0.6,0.4 0.8,0.4 0.3,0.1 0.6,-0.1 0.9,-0.3 l 1.7,-1.4 1.5,1.6 c 0.2,0.2 0.6,0.4 0.8,0.4 0.3,0.1 0.6,-0.1 0.9,-0.3 0.5,-0.4 0.6,-1.2 0.1,-1.7 l -1.4,-1.7 1.6,-1.5 c 0.5,-0.4 0.6,-1.2 0.1,-1.7 -0.4,-0.5 -1.2,-0.6 -1.7,-0.1 l -1.7,1.4 -1.6,-1.5 C 173,48.1 172.3,48 171.8,48.5"
               class="st10" />
            <path
               id="path19384"
               d="m 174.3,8.1 c 0.8,0 1.5,-0.6 1.6,-1.4 0,-0.8 -0.6,-1.5 -1.4,-1.6 -0.8,0 -1.5,0.6 -1.6,1.4 -0.1,0.8 0.5,1.5 1.4,1.6"
               class="st10" />
            <path
               id="path19386"
               d="m 131.4,24.9 c -0.8,0 -1.5,0.6 -1.6,1.4 0,0.8 0.6,1.5 1.4,1.6 0.8,0.1 1.5,-0.6 1.6,-1.4 0.2,-0.8 -0.5,-1.5 -1.4,-1.6"
               class="st10" />
            <path
               id="path19388"
               d="m 293.3,221.4 -8.7,3.1 c 0,0 8.6,7.4 18.6,11.7 1.9,0.9 3.9,1.5 5.9,2 1.8,0.5 3.6,0.8 5.3,0.8 1.7,0 3.3,-0.1 4.9,-0.5 0.9,-0.2 1.8,-0.5 2.6,-0.9 0.1,-0.3 0.3,-0.5 0.4,-0.7 0,-0.1 0.1,-0.2 0.1,-0.2 0.7,-1.2 1.2,-2.5 1.5,-3.6 0.3,-1.1 0.5,-2 0.5,-2.8 -1,0 -2.1,0 -3,0 -0.9,0 -1.9,-0.1 -2.8,-0.1 -13.4,-0.5 -21,-4.7 -25.3,-8.8"
               class="st11" />
            <path
               id="path19390"
               d="m 324.5,230.3 c -1,0 -2.1,0 -3,0 0.9,0 1.9,0.1 3,0 v 0 m -0.6,2.9 c -0.3,1.2 -0.8,2.4 -1.5,3.6 0,0.1 -0.1,0.2 -0.1,0.2 0,-0.1 0.1,-0.2 0.1,-0.2 0.7,-1.3 1.2,-2.5 1.5,-3.6"
               class="st12" />
            <path
               id="path19392"
               d="m 136.3,318.5 c -0.5,-0.1 -1,0.4 -1.1,0.9 l -1,8.7 c -0.1,0.6 0.4,1.1 1,1.1 h 0.1 l 6.7,-0.7 c 0.8,-0.1 1.3,-1 0.7,-1.7 l -5.7,-8 c -0.1,-0.1 -0.4,-0.3 -0.7,-0.3"
               class="st11" />
            <path
               id="path19394"
               d="m 301.3,250.6 c -0.9,0 -2.5,0 -4.5,-0.1 -0.1,0 -0.2,0 -0.4,0 l -0.3,6.5 -12.5,4.3 3.2,12.5 -11.2,1.7 -1.8,12.2 -12,-3.5 -5.7,12.7 -13.8,-4 -6.9,13 -12.3,-2.4 -10.2,14.3 v 0 l 6.5,0.6 7,-10.7 11.7,3.5 6.5,-14.3 13.5,4.2 1.3,0.4 3.6,-9.2 1.2,-3.1 5.5,1.6 8.7,2.6 1.4,-13.6 0.1,-0.3 4.6,-0.7 8.6,-1.4 -3.7,-12.8 -0.1,-0.2 v 0 l 11.6,-4.1 z"
               class="st11" />
            <path
               id="path19396"
               d="m 301.3,250.6 v 0 l -0.3,9.6 v 0 z m -12,13.6 v 0 l 0.1,0.2 z m 3.8,13 v 0 l -8.6,1.4 z m -13.3,2.6 -1.4,13.6 v 0 z m -15.7,9.2 -1.2,3.1 1.2,-3.1 5.5,1.6 z m -6.2,11.9 1.3,0.4 z m -45,16.8 v 0 l 6.5,0.6 z"
               class="st12" />
            <path
               id="path19398"
               d="m 318.6,241 -6.9,3.3 c 1,-0.3 2,-0.6 2.9,-1 0.3,-0.2 0.7,-0.3 1.1,-0.5 1,-0.5 2.1,-1 2.9,-1.8"
               class="st13" />
            <path
               id="path19400"
               d="m 315.6,242.9 c -0.3,0.2 -0.7,0.3 -1.1,0.5 0.4,-0.1 0.8,-0.4 1.1,-0.5"
               class="st14" />
            <path
               id="path19402"
               d="m 218.3,221 c 0,0 0,0 0,0 -4.7,-0.2 -8.5,1.8 -11.4,4.5 v 0 c 0,0.1 0,0.1 0.1,0.3 0,0.1 0.1,0.3 0,0.4 0,0 0,0 0,0.1 v 0 c 0,0.7 -0.3,1.2 -0.8,1.6 -0.5,0.5 -1.4,0.8 -2.3,0.9 -0.8,1 -1.5,2.1 -2.1,3.1 -0.4,0.7 0.1,1.4 0.9,1.5 0.2,0 0.5,-0.1 0.7,-0.2 4.7,-3.3 9.7,-4.2 14,-3.9 2.6,0.1 4.9,0.6 6.6,1.1 0.1,0 0.2,0.1 0.2,0 0.8,0 1.3,-1 0.8,-1.6 l -5.8,-7.2 c -0.4,-0.4 -0.6,-0.5 -0.9,-0.6"
               class="st11" />
            <path
               id="path19404"
               d="m 206.9,225.5 v 0 c 0,0.1 0,0.1 0.1,0.3 0,0.1 0.1,0.3 0,0.4 0,-0.1 0,-0.2 0,-0.4 0,-0.2 0,-0.3 -0.1,-0.3 v 0 m -0.7,2.3 c -0.5,0.5 -1.4,0.8 -2.3,0.9 v 0 c 0.9,0 1.8,-0.3 2.3,-0.9"
               class="st12" />
            <path
               id="path19406"
               d="m 86,218.7 c -0.2,0 -0.5,0.1 -0.6,0.2 l -3.8,4.1 c -0.5,0.5 -0.1,1.3 0.5,1.3 0.1,0 0.1,0 0.2,0 1,-0.2 2.3,-0.3 3.8,-0.2 2.5,0.2 5.5,0.8 8.1,3 0.2,0.1 0.3,0.1 0.5,0.2 0.5,0.1 1,-0.6 0.8,-1.2 -0.5,-1 -1.1,-2 -1.9,-3.1 -0.5,-0.2 -1,-0.3 -1.3,-0.6 -0.1,0 -0.2,-0.2 -0.3,-0.3 -0.1,-0.2 -0.3,-0.3 -0.3,-0.5 -0.1,0 0,-0.1 -0.1,-0.2 0,-0.1 -0.2,-0.3 -0.2,-0.5 0,0 0,0 0,-0.1 -1.6,-1.2 -3.3,-2 -5.4,-2.1 v 0"
               class="st11" />
            <path
               id="path19408"
               d="m 91.3,220.8 v 0 c 0,0.1 0.2,0.3 0.2,0.5 0.1,0 0,0.1 0.1,0.2 0.1,0.2 0.2,0.3 0.3,0.5 -0.1,-0.2 -0.3,-0.3 -0.3,-0.5 -0.1,0 0,-0.1 -0.1,-0.2 0,-0.1 -0.2,-0.3 -0.2,-0.5 m 0.9,1.5 v 0 c 0.3,0.3 0.7,0.5 1.3,0.6 v 0 c -0.6,0 -0.9,-0.2 -1.3,-0.6"
               class="st12" />
            <path
               id="path19410"
               d="m 126.7,316.2 c -0.3,-0.1 -0.6,0.1 -0.8,0.4 l -7.1,9 c -0.4,0.6 -0.2,1.4 0.5,1.7 l 3.2,1 2,0.7 2,0.7 0.5,0.2 c 0.1,0 0.2,0 0.3,0.1 0.6,0 1.1,-0.5 1.1,-1.1 l -0.1,-2.5 -0.2,-4 -0.2,-4 -0.1,-0.7 c -0.2,-1.1 -0.6,-1.4 -1.1,-1.5"
               class="st11" />
            <path
               id="path19412"
               d="m 118.6,314.1 c -0.1,0 -0.1,0 -0.2,0 l -9.5,1.2 c -0.9,0.1 -1.3,1.2 -0.6,1.9 l 4.5,4 c 0.1,0.2 0.4,0.2 0.7,0.3 0.3,0.1 0.6,-0.1 0.8,-0.4 l 5,-5.1 c 0.6,-0.8 0.2,-1.9 -0.7,-1.9"
               class="st11" />
            <path
               id="path19414"
               d="m 203.7,136.1 c -0.1,0 -0.4,0 -0.4,0 -8.4,-0.3 -15.9,1.3 -21.9,3.4 -0.7,0.2 -1.3,0.5 -1.9,0.8 l 1.2,5.8 c 3.7,-1.8 12.2,-5.6 22.2,-5.1 1.6,0.1 3.2,0.2 4.9,0.6 l -1.9,14.3 c 0,0 9,-3.1 22.1,-2.4 8.6,0.4 18.9,2.3 29.7,7.8 l -9.4,16.8 c 0,0 7.6,-0.9 16.7,-0.5 9.4,0.4 20.5,2.2 26.5,7.9 l 6.1,0.1 v 0 l 0.3,-0.7 0.5,-1.5 c -11.8,-9.8 -30.6,-11.4 -36.5,-11.6 -1.1,-0.1 -1.8,0 -1.8,0 h -2.1 -2.2 l 7.7,-12.3 c -12,-8.5 -25.9,-10.9 -35.5,-11.2 -7,-0.3 -11.7,0.4 -11.8,0.3 l -4.5,0.7 v 0 0 l 3.3,-6.9 1.8,-3.8 c -4.7,-1.8 -9,-2.4 -13.1,-2.5"
               class="st11" />
            <path
               id="path19416"
               d="m 203.2,136 c -8.4,-0.3 -15.9,1.3 -21.9,3.4 6,-2.1 13.4,-3.7 21.9,-3.4 m 11.5,5.9 -3.3,6.9 v 0 z m 48.4,17 v 0 l -7.7,12.3 h 2.2 -2.2 l 7.7,-12.3 m 34.6,25.6 -0.3,0.7 v 0 0 z"
               class="st12" />
            <path
               id="path19418"
               d="m 134,137 c -1.1,-0.1 -2.1,-0.1 -3.3,0 -0.2,0 -0.4,0 -0.6,0 l 2.5,15 c 0,-0.1 0.9,-10.3 1.9,-15 -0.1,-0.1 -0.3,-0.1 -0.5,0 m -1.3,14.9 z"
               class="st11" />
            <path
               id="path19420"
               d="m 134.1,136.9 v 0 c 0.1,0 0.4,0 0.5,0.1 v 0 c -0.2,-0.1 -0.3,0 -0.5,-0.1 m -3.4,0 c -0.2,0 -0.4,0 -0.6,0 l 2.5,15 -2.5,-15 c 0.3,0 0.4,0 0.6,0"
               class="st12" />
            <path
               id="path19422"
               d="m 80.3,160.8 c -0.1,0 -0.4,0 -0.5,0.1 -1,0.1 -2.1,0.3 -3.2,0.5 -1.9,0.4 -3.9,0.9 -6.1,1.6 l 2.3,10.4 0.8,3.5 c 0,-0.1 0.2,-11.6 6.7,-16.1"
               class="st11" />
            <path
               id="path19424"
               d="m 79.8,160.8 c -1,0.1 -2.1,0.3 -3.2,0.5 1.1,-0.2 2.2,-0.3 3.2,-0.5 m -9.2,2.1 v 0 l 2.3,10.4 -2.3,-10.4"
               class="st12" />
            <path
               id="path19426"
               d="m 102.2,145.7 c -0.9,0.1 -1.6,0.2 -2.4,0.4 -1.1,0.2 -2.2,0.4 -3.3,0.7 -1,0.3 -1.8,0.6 -2.8,0.8 l 1.8,7.8 1.8,7.9 c -0.1,-0.7 -1.6,-13.3 4.9,-17.6 m -4.9,17.6 z"
               class="st11" />
            <path
               id="path19428"
               d="m 102.2,145.7 c -0.9,0.1 -1.6,0.2 -2.5,0.3 0.9,-0.1 1.6,-0.2 2.5,-0.3 v 0 m -5.8,1.1 c -1,0.3 -1.8,0.6 -2.8,0.8 v 0 c 1,-0.3 2,-0.6 2.8,-0.8 m -0.9,8.5 1.8,7.9 v 0 0 z"
               class="st12" />
            <path
               id="path19430"
               d="m 116.2,176.7 c -0.4,0 -0.8,0.1 -1.1,0.5 -15.4,22.5 -14.1,74.1 -14,74.5 0.2,0 0.4,0 0.8,0 2.8,0.1 5.9,1 8.9,2.6 -5.2,-38.9 1.9,-64 6.7,-75.7 0.2,-1 -0.5,-1.8 -1.3,-1.9"
               class="st11" />
            <path
               id="path19432"
               d="m 101.7,251.7 c -0.2,0 -0.4,0 -0.8,0 v 0 c 0.4,0 0.6,0 0.8,0 2.8,0.1 5.9,1 8.9,2.6 -3,-1.6 -6,-2.4 -8.9,-2.6"
               class="st12" />
            <path
               id="path19434"
               d="m 193.4,273.9 c -0.3,-0.1 -0.7,0 -0.9,0 0.1,0.3 0,0.6 0,0.8 -0.1,0.3 0,0.7 0,0.9 -0.2,0.9 -0.5,1.8 -1.1,2.5 0,0.1 -0.1,0.2 -0.1,0.3 v 0 c 0,0.1 -0.1,0.2 -0.1,0.2 -1.1,1.4 -2.8,2.3 -4.7,2.6 l -2.6,0.4 -0.8,0.1 -8.6,1.2 -4.4,0.6 -4.2,0.6 -0.6,0.1 c -0.5,0.1 -1,0.1 -1.4,0.1 -0.7,0 -1.3,-0.2 -1.9,-0.4 -0.7,-0.3 -1.3,-0.5 -1.9,-0.9 -0.6,-0.4 -1,-0.8 -1.4,-1.4 -0.7,-0.8 -1.2,-1.9 -1.4,-3.1 -4.3,0.2 -8.6,0.2 -13,0.1 l 6.7,11.6 0.1,0.2 c 1,0 2.1,0.1 3.2,0.1 0.3,0.1 0.7,0 0.9,0 0.1,0 0.3,0.1 0.4,0 1.6,0.1 3.1,0.2 4.6,0.3 16,1.7 29.9,8.2 33.4,15.7 9.9,-3.9 15,-9.7 15.4,-17.7 0,-0.9 0,-1.8 -0.1,-2.9 -0.1,-1.1 -0.2,-2.2 -0.6,-3.4 0,-0.2 -0.1,-0.4 -0.1,-0.6 -0.6,-2 -1.7,-3.6 -3.6,-4.9 -0.3,-0.1 -0.5,-0.4 -0.8,-0.6 -0.2,-0.1 -0.3,-0.1 -0.4,-0.2 -1,-0.6 -2.2,-1.1 -3.6,-1.6 -0.1,0 -0.3,-0.1 -0.4,-0.1 -0.8,-0.2 -1.5,-0.4 -2.3,-0.5 -0.3,-0.1 -0.5,-0.1 -0.8,-0.1 -1.2,0.1 -2,0.1 -2.9,0"
               class="st15" />
            <path
               id="path19436"
               d="m 157.5,293.8 c 7.2,2.3 22.5,8 24.4,15.9 3,-0.5 5.9,-1.1 8.6,-2 -0.8,-1.7 -2.5,-3.5 -4.8,-5.1 -5.9,-4.2 -16.2,-7.9 -28.2,-8.8"
               class="st16" />
            <path
               id="path19438"
               d="m 59,204.1 c -0.8,0.7 -1.9,1.2 -2.9,1.8 -2.1,1.1 -4.8,1.9 -7.9,2.1 0.4,1.1 0.9,2.6 2,4 1.6,2.2 4.2,4.1 8.4,4.3 0.2,0 0.4,0 0.8,0 0,-0.4 0,-0.9 0,-1.4 -0.2,-3.7 -0.3,-7.3 -0.4,-10.8"
               class="st11" />
            <path
               id="path19440"
               d="m 59,204.1 c -0.8,0.7 -1.9,1.2 -2.9,1.8 1,-0.6 2,-1.2 2.9,-1.8 v 0 m -10.7,3.8 v 0 c 0.4,1.1 0.9,2.6 2,4 -1,-1.4 -1.6,-2.8 -2,-4 m 11,6.9 v 0 c 0,0.4 0,0.9 0,1.4 v 0 c 0.1,-0.4 0.1,-0.9 0,-1.4"
               class="st12" />
          </g>
          <g
             id="g19454">
            <path
               id="path19444"
               d="m 151.1,371.1 v 0 c -0.2,0 -0.4,0 -0.7,0 -3.4,0 -6.6,-1.5 -9.7,-4.7 -2.9,-3 -4,-7 -3.4,-11.6 0.2,-1.7 0.7,-3.6 1.4,-5.5 1.9,-5 4.9,-9 5,-9.1 l 0.5,-0.6 0.9,-0.1 c 0.1,0 2.3,-0.3 5.5,-0.3 5,-0.3 11.9,1.3 11.9,1.3 0.3,0.1 0.6,0.1 1,0.2 5.4,1.4 9.8,3.8 13,7.1 0.1,0 0.1,0.2 0.1,0.2 v 0 0 0 l 2.3,2.3 -8.2,2.3 c 2.7,1.9 6,4.6 7.6,7.9 l 1.4,2.3 -2.2,0.5 -18.9,4.3 c -0.5,0.4 -1.1,1 -2.1,1.6 0.1,0 -2.5,1.6 -5.4,1.9"
               class="st1" />
            <path
               id="path19446"
               d="m 151.9,366.9 c 0.8,-0.2 1.5,-0.5 2.2,-0.8 0.5,-0.3 1.1,-0.7 1.4,-0.9 -0.3,-1 -0.5,-1.9 -0.8,-2.7 -0.1,-0.4 -0.2,-0.7 -0.2,-1 -0.4,-1.7 -0.6,-3.3 -0.7,-4.8 -0.3,-2.6 -0.1,-4.9 0.1,-6.8 0.4,-2.8 1.1,-4.9 1.7,-6.5 -4.1,-0.3 -7.5,-0.1 -9,-0.1 -1.2,1.6 -3.8,5.9 -4.8,10.5 -0.9,3.5 -0.6,7.2 2,10 2.2,2.3 4.5,3.5 6.7,3.4 0.4,-0.1 0.9,-0.2 1.4,-0.3"
               class="st0" />
            <path
               id="path19448"
               d="m 173,360.3 c -0.1,0 -0.1,0 -0.1,-0.2 -1.6,-1.7 -4.3,-4 -8,-6.4 l -4.5,-2.2 0.5,-0.2 5,-1.4 5.1,-1.5 c -2,-1.4 -5,-3.1 -8.9,-4.1 -0.7,-0.2 -1.4,-0.3 -2.1,-0.5 -0.1,0 -0.2,0 -0.3,-0.1 -1,1.8 -2.6,6.1 -2,12.9 0.2,1.4 0.4,2.9 0.8,4.5 0.1,0.8 0.4,1.5 0.6,2.3 l 7.9,-1.8 z"
               class="st3" />
            <path
               id="path19450"
               d="m 167,361.6 5.9,-1.3 c -0.1,0 -0.1,0 -0.1,-0.2 -3.7,0.3 -9.3,0.7 -14.4,1 0.1,0.8 0.4,1.5 0.6,2.3 z"
               class="st17" />
            <path
               id="path19452"
               d="m 151.9,366.9 c 0.8,-0.2 1.5,-0.5 2.2,-0.8 0.5,-0.3 1.1,-0.7 1.4,-0.9 -0.3,-1 -0.5,-1.9 -0.8,-2.7 -0.1,-0.4 -0.2,-0.7 -0.2,-1 -0.6,0 -1,0 -1.6,-0.1 -5,-0.8 -9,-4.8 -11.3,-7.5 -0.9,3.5 -0.6,7.2 2,10 2.2,2.3 4.5,3.5 6.7,3.4 0.6,-0.2 1.1,-0.3 1.6,-0.4"
               class="st18" />
          </g>
        </g>
      </g>
    </g>
    <text
       transform="scale(0.74757642,1.3376559)"
       id="text925"
       y="155.12637"
       x="354.65369"
       style="font-style:normal;font-weight:normal;font-size:38.1693px;line-height:1.25;font-family:sans-serif;fill:#008080;fill-opacity:1;stroke:none;stroke-width:0.954229"
       xml:space="preserve"><tspan
         style="font-weight:bold;fill:#008080;stroke-width:0.954229"
         y="155.12637"
         x="354.65369"
         id="tspan923"
         sodipodi:role="line">WHEEL OF FORTUNE</tspan></text>
  </g>
  <style
     id="style19304"
     type="text/css">
	.st0{fill:#D8723B;}
	.st1{fill:#633A2F;}
	.st2{fill:#FFFFFF;}
	.st3{fill:#545658;}
	.st4{fill:#F37D7F;}
	.st5{fill:#3F2926;}
	.st6{fill:#FDFADD;}
	.st7{fill:#FCF6B6;}
	.st8{fill:#FDF5A3;}
	.st9{fill:#F596A9;}
	.st10{fill:#FBEA74;}
	.st11{fill:#C86836;}
	.st12{fill:#72402E;}
	.st13{fill:#C35F34;}
	.st14{fill:#5C3025;}
	.st15{fill:#535354;}
	.st16{fill:#D86E66;}
	.st17{fill:#494949;}
	.st18{fill:#A04D27;}
</style>
</svg>
